<svg width="16" height="16" viewBox="0 0 16 16" fill="none" xmlns="http://www.w3.org/2000/svg">
<path d="M9.06222 12.2933L13.3333 8.00001L9.06222 3.70668C9.02365 3.65602 8.97464 3.61425 8.91852 3.58418C8.8624 3.55411 8.80047 3.53645 8.73693 3.5324C8.67339 3.52834 8.60972 3.53799 8.55023 3.56068C8.49074 3.58337 8.43682 3.61858 8.39212 3.66392C8.34743 3.70926 8.31299 3.76368 8.29115 3.82349C8.26931 3.88329 8.26058 3.94709 8.26554 4.01057C8.2705 4.07405 8.28904 4.13572 8.31991 4.1914C8.35077 4.24709 8.39325 4.2955 8.44445 4.33334L11.64 7.55556L3.13778 7.55556C3.01991 7.55556 2.90686 7.60239 2.82351 7.68574C2.74016 7.76909 2.69334 7.88213 2.69334 8.00001C2.69334 8.11788 2.74016 8.23093 2.82351 8.31428C2.90686 8.39763 3.01991 8.44445 3.13778 8.44445L11.64 8.44445L8.44445 11.6667C8.36135 11.7504 8.31489 11.8636 8.31531 11.9816C8.31573 12.0995 8.36298 12.2125 8.44667 12.2956C8.53036 12.3787 8.64363 12.4251 8.76157 12.4247C8.87951 12.4243 8.99246 12.377 9.07556 12.2933L9.06222 12.2933Z" fill="#42B8A5"/>
</svg>
