<svg width="72" height="72" viewBox="0 0 72 72" fill="none" xmlns="http://www.w3.org/2000/svg">
<circle cx="36" cy="36" r="35" fill="#42B8A5" fill-opacity="0.1" stroke="#42B8A5" stroke-width="2"/>
<g clip-path="url(#clip0_5_226)">
<path d="M49.524 32.654L36 19.2L22.476 32.654C22.3164 32.7755 22.1848 32.9299 22.0901 33.1066C21.9954 33.2834 21.9398 33.4785 21.927 33.6787C21.9142 33.8788 21.9446 34.0794 22.0161 34.2668C22.0876 34.4542 22.1985 34.624 22.3413 34.7648C22.4841 34.9056 22.6555 35.0141 22.8439 35.0829C23.0323 35.1517 23.2333 35.1792 23.4333 35.1635C23.6332 35.1479 23.8275 35.0895 24.0029 34.9923C24.1783 34.895 24.3308 34.7613 24.45 34.6L34.6 24.534L34.6 51.316C34.6 51.6873 34.7475 52.0434 35.01 52.3059C35.2726 52.5685 35.6287 52.716 36 52.716C36.3713 52.716 36.7274 52.5685 36.9899 52.3059C37.2525 52.0434 37.4 51.6873 37.4 51.316L37.4 24.534L47.55 34.6C47.8136 34.8617 48.1704 35.0081 48.5419 35.0068C48.9134 35.0054 49.2692 34.8566 49.531 34.593C49.7928 34.3294 49.9391 33.9725 49.9378 33.601C49.9365 33.2295 49.7876 32.8737 49.524 32.612V32.654Z" fill="#42B8A5"/>
</g>
<defs>
<clipPath id="clip0_5_226">
<rect width="50.4" height="50.4" fill="white" transform="translate(10.8 10.8)"/>
</clipPath>
</defs>
</svg>
