<svg width="100" height="100" viewBox="0 0 62 62" fill="none" xmlns="http://www.w3.org/2000/svg">
<g filter="url(#filter0_d_211_941)">
<circle cx="30" cy="29" r="28" fill="#42B8A5"/>
</g>
<path d="M41.9844 32.6055C42.5453 32.6055 43 32.1508 43 31.5898V24.9883C43 22.7482 41.1776 20.9258 38.9375 20.9258H37.3957C36.9608 20.9258 36.5744 20.6492 36.4342 20.2374L36.127 19.3347C35.7065 18.0994 34.5474 17.2695 33.2426 17.2695H26.7542C25.4747 17.2695 24.3231 18.0781 23.8885 19.2815L23.537 20.2551C23.3921 20.6562 23.0082 20.9258 22.5817 20.9258H21.0625C18.8224 20.9258 17 22.7482 17 24.9883V36.668C17 38.908 18.8224 40.7305 21.0625 40.7305H38.9375C41.1776 40.7305 43 38.908 43 36.668C43 36.107 42.5453 35.6523 41.9844 35.6523C41.4234 35.6523 40.9688 36.107 40.9688 36.668C40.9688 37.788 40.0575 38.6992 38.9375 38.6992H21.0625C19.9425 38.6992 19.0312 37.788 19.0312 36.668V24.9883C19.0312 23.8682 19.9425 22.957 21.0625 22.957H22.5817C23.8612 22.957 25.0129 22.1484 25.4474 20.945L25.799 19.9714C25.9438 19.5703 26.3277 19.3008 26.7542 19.3008H33.2426C33.6775 19.3008 34.0639 19.5774 34.2041 19.9892L34.5114 20.8919C34.9318 22.1271 36.0909 22.957 37.3957 22.957H38.9375C40.0575 22.957 40.9688 23.8682 40.9688 24.9883V31.5898C40.9688 32.1508 41.4234 32.6055 41.9844 32.6055Z" fill="white"/>
<path d="M30.0508 23.9727C26.5507 23.9727 23.7031 26.8202 23.7031 30.3203C23.7031 33.8204 26.5507 36.668 30.0508 36.668C33.5509 36.668 36.3984 33.8204 36.3984 30.3203C36.3984 26.8202 33.5509 23.9727 30.0508 23.9727ZM30.0508 34.6367C27.6707 34.6367 25.7344 32.7004 25.7344 30.3203C25.7344 27.9402 27.6707 26.0039 30.0508 26.0039C32.4308 26.0039 34.3672 27.9402 34.3672 30.3203C34.3672 32.7004 32.4308 34.6367 30.0508 34.6367Z" fill="white"/>
<defs>
<filter id="filter0_d_211_941" x="0" y="0" width="62" height="62" filterUnits="userSpaceOnUse" color-interpolation-filters="sRGB">
<feFlood flood-opacity="0" result="BackgroundImageFix"/>
<feColorMatrix in="SourceAlpha" type="matrix" values="0 0 0 0 0 0 0 0 0 0 0 0 0 0 0 0 0 0 127 0" result="hardAlpha"/>
<feOffset dx="1" dy="2"/>
<feGaussianBlur stdDeviation="1.5"/>
<feComposite in2="hardAlpha" operator="out"/>
<feColorMatrix type="matrix" values="0 0 0 0 0 0 0 0 0 0 0 0 0 0 0 0 0 0 0.1 0"/>
<feBlend mode="normal" in2="BackgroundImageFix" result="effect1_dropShadow_211_941"/>
<feBlend mode="normal" in="SourceGraphic" in2="effect1_dropShadow_211_941" result="shape"/>
</filter>
</defs>
</svg>
