<svg width="18" height="18" viewBox="0 0 18 18" fill="none" xmlns="http://www.w3.org/2000/svg">
<path d="M11.0237 4.9812C10.7612 4.80272 10.4642 4.68993 10.1549 4.6513C9.84567 4.61266 9.53221 4.64918 9.23808 4.75812C8.79246 4.94064 8.45309 5.32089 8.16129 5.7079C8.05028 5.84986 7.93927 5.99182 7.82192 6.12871C7.74283 6.23363 7.64466 6.32043 7.5333 6.3839C7.4853 6.41329 7.43123 6.42959 7.3759 6.43136C7.32057 6.43313 7.26569 6.42031 7.21613 6.39404C7.09402 6.31292 7.03534 6.13547 6.88469 6.10167C6.70707 6.08815 6.63412 6.31799 6.61192 6.47009C6.58264 6.92787 6.65151 7.38675 6.81332 7.81195C7.00362 8.3798 7.20027 8.97299 7.14952 9.58815C7.09837 10.1336 6.91592 10.6558 6.61985 11.1041C6.39466 11.4573 6.14409 11.8223 6.0981 12.2567C6.06867 12.5074 6.13028 12.7606 6.27031 12.9645C6.41035 13.1684 6.61822 13.3076 6.85138 13.3535C7.29225 13.4278 7.6792 13.0814 7.90439 12.713C8.12365 12.3496 8.23983 11.9265 8.239 11.4945C8.2359 11.1039 8.19444 10.7148 8.1153 10.3334C7.94562 9.52731 7.67919 8.69076 7.95672 7.87449C8.03028 7.60305 8.16344 7.35418 8.34517 7.14846C8.5269 6.94275 8.75198 6.78611 9.00179 6.69149C9.2052 6.61201 9.42657 6.60081 9.63613 6.65938C9.81406 6.71923 9.97039 6.836 10.0839 6.99383C10.1974 7.15166 10.2625 7.3429 10.2705 7.54156C10.2799 7.7017 10.2564 7.8621 10.2016 8.01156C10.1468 8.16102 10.0621 8.29592 9.9533 8.40684C9.80913 8.52251 9.64016 8.59802 9.46169 8.62654C9.36663 8.64252 9.27079 8.65268 9.17465 8.65696C9.06998 8.67217 8.89396 8.6333 8.82259 8.72456C8.72268 8.87666 8.98118 8.99665 9.09377 9.03552C9.23808 9.08171 9.38626 9.11284 9.53622 9.12847C9.90679 9.17503 10.2822 9.11236 10.6217 8.94728C10.9612 8.78219 11.2516 8.52102 11.4614 8.1922C12.1703 7.12412 12.0466 5.75015 11.0237 4.9812Z" fill="#081B17"/>
<path d="M11.7938 12.6932C11.745 12.6579 11.687 12.6382 11.6272 12.6365C11.5674 12.6348 11.5084 12.6511 11.4577 12.6835C11.1988 12.7734 11.093 13.1333 11.2679 13.2883C11.4427 13.4433 11.7518 13.3505 11.8697 13.089C11.9054 13.0246 11.9174 12.9493 11.9034 12.8768C11.8895 12.8042 11.8506 12.7391 11.7938 12.6932Z" fill="#081B17"/>
<circle cx="9" cy="9" r="8" stroke="#081B17"/>
</svg>
