<svg width="70" height="70" viewBox="0 0 50 50" fill="none" xmlns="http://www.w3.org/2000/svg">
<circle cx="25" cy="25" r="25" fill="#EDF5F4"/>
<g clip-path="url(#clip0_211_1522)">
<path d="M26.6429 23.2143H27.7143V26.7857H26.6429V28.2143H30.2143V26.7857H29.1429V23.2143H30.2143V21.7857H26.6429V23.2143Z" fill="#42B8A5"/>
<path d="M23.2143 21.7857H21.7857C21.45 21.7857 21.1643 22.0214 21.0857 22.3429L19.7786 28.2143H21.2428L21.5571 26.7857H23.4286L23.7428 28.2143H25.2071L23.9 22.3429C23.8286 22.0143 23.5357 21.7857 23.2 21.7857H23.2143ZM21.8857 25.3571L22.3643 23.2143H22.65L23.1286 25.3571H21.8928H21.8857Z" fill="#42B8A5"/>
<path d="M35.7143 25C35.7143 19.0929 30.9071 14.2857 25 14.2857C19.0928 14.2857 14.2857 19.0929 14.2857 25C14.2857 30.9072 19.0928 35.7143 25 35.7143C30.9071 35.7143 35.7143 30.9072 35.7143 25ZM25 34.2857C19.8786 34.2857 15.7143 30.1214 15.7143 25C15.7143 19.8786 19.8786 15.7143 25 15.7143C30.1214 15.7143 34.2857 19.8786 34.2857 25C34.2857 30.1214 30.1214 34.2857 25 34.2857Z" fill="#42B8A5"/>
<path d="M42.1214 18.5429L41.1714 19.6071C42.7 20.9714 43.5786 22.9429 43.5786 25C43.5786 27.0571 42.7 29.0286 41.1714 30.3929L42.1214 31.4571C43.95 29.8214 45 27.4643 45 25C45 22.5357 43.95 20.1786 42.1214 18.5429Z" fill="#42B8A5"/>
<path d="M38.7928 21.8857C39.5714 22.7286 40 23.8357 40 25C40 26.1643 39.5714 27.2714 38.7928 28.1143L39.8428 29.0857C40.8714 27.9786 41.4357 26.5286 41.4357 25C41.4357 23.4714 40.8714 22.0214 39.8428 20.9143L38.7928 21.8857Z" fill="#42B8A5"/>
<path d="M5 25C5 27.4714 6.05 29.8214 7.87857 31.4571L8.82857 30.3929C7.3 29.0286 6.42143 27.0571 6.42143 25C6.42143 22.9429 7.3 20.9714 8.82857 19.6071L7.87857 18.5429C6.05 20.1786 5 22.5357 5 25Z" fill="#42B8A5"/>
<path d="M10.1643 20.9143C9.13573 22.0214 8.57144 23.4714 8.57144 25C8.57144 26.5286 9.13573 27.9786 10.1643 29.0857L11.2143 28.1143C10.4357 27.2714 10.0072 26.1643 10.0072 25C10.0072 23.8357 10.4357 22.7286 11.2143 21.8857L10.1643 20.9143Z" fill="#42B8A5"/>
</g>
<defs>
<clipPath id="clip0_211_1522">
<rect width="40" height="21.4286" fill="white" transform="translate(5 14.2857)"/>
</clipPath>
</defs>
</svg>
