<svg width="70" height="70" viewBox="0 0 70 70" fill="none" xmlns="http://www.w3.org/2000/svg">
<circle cx="35" cy="35" r="35" fill="#EDF5F4"/>
<path d="M16.875 40C16.53 40 16.25 39.72 16.25 39.375V19.375C16.25 18.3412 17.0912 17.5 18.125 17.5H51.875C52.9087 17.5 53.75 18.3412 53.75 19.375V21.25C53.75 21.595 53.47 21.875 53.125 21.875C52.78 21.875 52.5 21.595 52.5 21.25V19.375C52.5 19.0312 52.2188 18.75 51.875 18.75H18.125C17.7812 18.75 17.5 19.0312 17.5 19.375V39.375C17.5 39.72 17.22 40 16.875 40Z" fill="#42B8A5" stroke="#42B8A5"/>
<path d="M35 53.75H28.125C27.78 53.75 27.5 53.47 27.5 53.125C27.5 52.78 27.78 52.5 28.125 52.5H29.375C30.4088 52.5 31.25 51.6588 31.25 50.625V47.5C31.25 47.155 31.53 46.875 31.875 46.875C32.22 46.875 32.5 47.155 32.5 47.5V50.625C32.5 51.3288 32.2662 51.9775 31.8737 52.5H35C35.345 52.5 35.625 52.78 35.625 53.125C35.625 53.47 35.345 53.75 35 53.75Z" fill="#42B8A5" stroke="#42B8A5"/>
<path d="M34.375 47.5H18.125C17.0912 47.5 16.25 46.6588 16.25 45.625V41.875C16.25 41.53 16.53 41.25 16.875 41.25H34.375C34.72 41.25 35 41.53 35 41.875C35 42.22 34.72 42.5 34.375 42.5H17.5V45.625C17.5 45.9688 17.7812 46.25 18.125 46.25H34.375C34.72 46.25 35 46.53 35 46.875C35 47.22 34.72 47.5 34.375 47.5Z" fill="#42B8A5" stroke="#42B8A5"/>
<path d="M50.625 53.75H39.375C37.6513 53.75 36.25 52.3487 36.25 50.625V25.625C36.25 23.9013 37.6513 22.5 39.375 22.5H50.625C52.3487 22.5 53.75 23.9013 53.75 25.625V50.625C53.75 52.3487 52.3487 53.75 50.625 53.75ZM39.375 23.75C38.3412 23.75 37.5 24.5912 37.5 25.625V50.625C37.5 51.6588 38.3412 52.5 39.375 52.5H50.625C51.6587 52.5 52.5 51.6588 52.5 50.625V25.625C52.5 24.5912 51.6587 23.75 50.625 23.75H39.375Z" fill="#42B8A5" stroke="#42B8A5"/>
<path d="M48.125 26.25H41.875C41.53 26.25 41.25 25.97 41.25 25.625C41.25 25.28 41.53 25 41.875 25H48.125C48.47 25 48.75 25.28 48.75 25.625C48.75 25.97 48.47 26.25 48.125 26.25Z" fill="#42B8A5" stroke="#42B8A5"/>
<path d="M45.625 51.25H44.375C44.03 51.25 43.75 50.97 43.75 50.625C43.75 50.28 44.03 50 44.375 50H45.625C45.97 50 46.25 50.28 46.25 50.625C46.25 50.97 45.97 51.25 45.625 51.25Z" fill="#42B8A5" stroke="#42B8A5"/>
</svg>
