<svg width="70" height="70" viewBox="0 0 70 70" fill="none" xmlns="http://www.w3.org/2000/svg">
<circle cx="35" cy="35" r="35" fill="#EDF5F4"/>
<g clip-path="url(#clip0_238_65)">
<path d="M33.3716 35.9529L39.7471 29.5775C40.0376 29.2869 40.5088 29.287 40.7994 29.5775C41.0899 29.868 41.0899 30.3391 40.7994 30.6298L33.8324 37.5967C33.6925 37.7365 33.503 37.8146 33.3064 37.8146C33.2919 37.8146 33.2774 37.8142 33.2629 37.8133C33.0508 37.8009 32.8541 37.6985 32.7225 37.5318L29.4287 33.3624C29.1739 33.04 29.2289 32.572 29.5512 32.3173C29.8739 32.0625 30.3417 32.1175 30.5963 32.4399L33.3716 35.9529ZM35.1428 23.4101C40.7544 23.4101 45.3197 27.9755 45.3197 33.587C45.3197 39.1985 40.7544 43.7639 35.1428 43.7639C29.5313 43.7639 24.966 39.1986 24.966 33.5871C24.966 27.9755 29.5313 23.4101 35.1428 23.4101ZM35.1428 24.8982C30.3518 24.8982 26.4541 28.796 26.4541 33.587C26.4541 38.378 30.3518 42.2758 35.1428 42.2758C39.9339 42.2758 43.8316 38.3781 43.8316 33.5871C43.8316 28.7961 39.9339 24.8982 35.1428 24.8982ZM51.7924 21.0827V34.9795C51.7924 37.2225 51.2533 39.4807 50.1902 41.6915C49.2377 43.6725 47.8889 45.5721 46.1813 47.3377C43.0929 50.5311 39.0384 53.03 35.3354 54.0222C35.2723 54.0392 35.2076 54.0476 35.1428 54.0476C35.0781 54.0476 35.0134 54.0391 34.9503 54.0223C31.2473 53.0301 27.1928 50.5313 24.1044 47.3378C22.3968 45.5722 21.048 43.6726 20.0954 41.6916C19.0323 39.4808 18.4933 37.2225 18.4933 34.9796V21.0827C18.4933 20.6947 18.7915 20.3718 19.1783 20.341C23.7525 19.9772 27.6155 17.8289 30.0509 16.0908C30.177 16.0008 30.3282 15.9524 30.4832 15.9524H39.8025C39.9575 15.9524 40.1086 16.0008 40.2348 16.0908C42.6701 17.8289 46.5332 19.9772 51.1073 20.341C51.4942 20.3718 51.7924 20.6947 51.7924 21.0827ZM50.3043 21.7572C46.6984 21.3361 43.005 19.8529 39.5659 17.4405H30.7198C27.2806 19.8529 23.5873 21.3361 19.9815 21.7572V34.9796C19.9815 43.578 28.8761 50.7558 35.1429 52.5318C41.4097 50.7557 50.3044 43.5779 50.3044 34.9796V21.7572H50.3043Z" fill="#42B8A5" stroke="#42B8A5"/>
</g>
<defs>
<clipPath id="clip0_238_65">
<rect width="34.2857" height="40" fill="white" transform="translate(18 15)"/>
</clipPath>
</defs>
</svg>
