<svg width="70" height="70" viewBox="0 0 70 70" fill="none" xmlns="http://www.w3.org/2000/svg">
<circle cx="35" cy="35" r="35" fill="#EDF5F4"/>
<path d="M53.3738 39.6572C52.9993 39.6572 52.6402 39.806 52.3754 40.0708C52.1106 40.3356 51.9618 40.6947 51.9618 41.0692V45.8909C51.9618 47.0274 51.5104 48.1174 50.7067 48.921C49.9031 49.7246 48.8131 50.1761 47.6766 50.1761H23.1091C21.9726 50.1761 20.8826 49.7246 20.079 48.921C19.2753 48.1174 18.8239 47.0274 18.8239 45.8909V41.0692C18.8239 40.6947 18.6751 40.3356 18.4103 40.0708C18.1455 39.806 17.7864 39.6572 17.4119 39.6572C17.0375 39.6572 16.6783 39.806 16.4135 40.0708C16.1488 40.3356 16 40.6947 16 41.0692V45.8909C16.0019 47.7758 16.7515 49.5829 18.0843 50.9157C19.4171 52.2485 21.2242 52.9981 23.1091 53H47.6766C49.5615 52.9981 51.3686 52.2485 52.7014 50.9157C54.0343 49.5829 54.7838 47.7758 54.7857 45.8909V41.0692C54.7857 40.6947 54.637 40.3356 54.3722 40.0708C54.1074 39.806 53.7482 39.6572 53.3738 39.6572Z" fill="#42B8A5"/>
<path d="M28.3331 27.4441L33.9809 21.7964V42.7635C33.9809 43.138 34.1296 43.4971 34.3944 43.7619C34.6592 44.0267 35.0183 44.1754 35.3928 44.1754C35.7673 44.1754 36.1264 44.0267 36.3912 43.7619C36.656 43.4971 36.8047 43.138 36.8047 42.7635V21.8175L42.4524 27.4653C42.5836 27.5964 42.7394 27.7005 42.9108 27.7715C43.0822 27.8425 43.2659 27.879 43.4514 27.879C43.6369 27.879 43.8206 27.8425 43.992 27.7715C44.1634 27.7005 44.3191 27.5964 44.4503 27.4653C44.5815 27.3341 44.6856 27.1783 44.7566 27.0069C44.8275 26.8355 44.8641 26.6518 44.8641 26.4663C44.8641 26.2808 44.8275 26.0971 44.7566 25.9257C44.6856 25.7543 44.5815 25.5986 44.4503 25.4674L36.3953 17.4123C36.199 17.2219 35.9552 17.0878 35.6893 17.024C35.4608 16.982 35.2255 16.9953 35.0032 17.0628C34.7809 17.1304 34.578 17.2502 34.4115 17.4123L26.3564 25.4462C26.1323 25.7159 26.0165 26.0594 26.0317 26.4098C26.0469 26.7602 26.192 27.0924 26.4386 27.3417C26.6853 27.591 27.0159 27.7396 27.3661 27.7585C27.7163 27.7774 28.061 27.6653 28.3331 27.4441Z" fill="#42B8A5"/>
</svg>
