<svg width="70" height="70" viewBox="0 0 70 70" fill="none" xmlns="http://www.w3.org/2000/svg">
<circle cx="35" cy="35" r="35" fill="#EDF5F4"/>
<path d="M21.8249 21.9421C21.9133 21.5197 21.6426 21.1055 21.2202 21.0171C20.7978 20.9286 20.3836 21.1993 20.2952 21.6218C20.2067 22.0442 20.4774 22.4583 20.8999 22.5468C21.3223 22.6352 21.7364 22.3645 21.8249 21.9421Z" fill="#42B8A5" stroke="#42B8A5" stroke-width="1.3"/>
<path d="M49.5864 21.3165C46.1116 17.614 41.4166 15.3872 36.3672 15.0466C35.9185 15.0158 35.4585 15.0001 35 15.0001C30.7302 15.0001 26.6561 16.3268 23.2182 18.837C22.8691 19.0919 22.7927 19.5816 23.0477 19.9307C23.3026 20.2801 23.7923 20.3564 24.1414 20.1014C26.302 18.5239 28.7357 17.454 31.3135 16.9329C31.4253 17.7881 31.4822 18.6933 31.4822 19.635C31.4822 19.7861 31.5259 19.934 31.6081 20.0607L35.8891 26.6654C36.207 27.2608 36.1923 27.9608 35.8482 28.5432C35.4998 29.1327 34.8828 29.4847 34.1977 29.4847H31.8799C31.4476 29.4847 31.0971 29.8351 31.0971 30.2675V33.9043C31.0971 34.0651 31.0009 34.2077 30.8516 34.2675L28.5374 35.1968C27.7984 35.4938 27.3164 36.2004 27.3098 36.9968C27.3032 37.7932 27.773 38.5075 28.5067 38.8167L30.8581 39.8072C31.0033 39.8682 31.0971 40.0096 31.0971 40.1673V41.6236C31.0971 43.8669 29.272 45.6919 27.0288 45.6919H25.1631C23.6581 45.6919 22.398 46.7594 22.0995 48.1768C18.6224 44.7733 16.5655 40.0607 16.5655 35.0001C16.5655 31.4122 17.5966 27.9348 19.5473 24.9436C19.7835 24.5815 19.6814 24.0965 19.3193 23.8604C18.9572 23.6242 18.4723 23.7263 18.2361 24.0884C16.119 27.3347 15 31.1078 15 35.0001C15 43.0315 19.7745 50.2564 27.1635 53.4063C29.6448 54.4639 32.2814 55.0001 35 55.0001C40.3423 55.0001 45.3648 52.9198 49.1423 49.1424C52.9197 45.365 55 40.3425 55 35.0001C55 29.896 53.0774 25.0365 49.5864 21.3165ZM48.0352 48.0354C44.5534 51.5171 39.9241 53.4346 35 53.4346C32.4935 53.4346 30.0635 52.9405 27.7774 51.9661C26.2564 51.3178 24.856 50.4815 23.5976 49.4921V48.823C23.5976 47.9597 24.2999 47.2575 25.1631 47.2575H27.0288C30.1354 47.2575 32.6627 44.7301 32.6627 41.6236V40.1673C32.6627 39.3775 32.1923 38.6697 31.4652 38.3642L29.1145 37.374C28.8966 37.2822 28.8746 37.0888 28.8753 37.01C28.8759 36.9311 28.9012 36.7379 29.121 36.6496L31.4344 35.7207C32.1805 35.4217 32.6626 34.7088 32.6626 33.9044V31.0504H34.1976C35.4421 31.0504 36.563 30.411 37.1959 29.3399C37.829 28.2686 37.8484 26.978 37.248 25.8877C37.2391 25.8714 37.2294 25.8553 37.2192 25.8396L33.0466 19.4021C33.0377 18.4609 32.9751 17.5522 32.8604 16.6883C33.5659 16.6073 34.2798 16.5659 34.9999 16.5659C35.4228 16.5659 35.8467 16.5803 36.2608 16.6088C40.9148 16.9228 45.2419 18.9753 48.4448 22.3882C51.6623 25.8167 53.4344 30.2957 53.4344 35.0004C53.4345 39.9243 51.517 44.5536 48.0352 48.0354Z" fill="#42B8A5" stroke="#42B8A5" stroke-width="1.3"/>
<path d="M37.367 34.7142C37.0142 34.964 36.9308 35.4526 37.1805 35.8054C37.5237 36.2901 37.933 37.074 37.933 38.0558C37.933 38.5975 37.8024 39.4277 37.1805 40.3062C36.9542 40.6258 37.004 41.0785 37.2956 41.3404C37.6395 41.6494 38.1915 41.5875 38.4583 41.2108C39.318 39.9962 39.4985 38.8247 39.4985 38.0557C39.4985 36.6622 38.9327 35.5708 38.4582 34.9005C38.2085 34.5478 37.7199 34.4644 37.367 34.7142Z" fill="#42B8A5" stroke="#42B8A5" stroke-width="1.3"/>
<path d="M41.1141 33.0406C40.7613 33.2905 40.6777 33.779 40.9275 34.1318C41.7829 35.3402 42.2351 36.6972 42.2351 38.0558C42.2351 39.4146 41.7829 40.7715 40.9275 41.98C40.7013 42.2996 40.7511 42.7522 41.0427 43.014C41.3867 43.323 41.9386 43.2612 42.2054 42.8844C43.2491 41.4101 43.8007 39.7404 43.8007 38.0558C43.8007 36.3713 43.2491 34.7016 42.2054 33.2273C41.9555 32.8744 41.467 32.7909 41.1141 33.0406Z" fill="#42B8A5" stroke="#42B8A5" stroke-width="1.3"/>
<path d="M44.9926 31.6187C44.6398 31.8685 44.5563 32.357 44.8061 32.7099C45.97 34.354 46.5852 36.2025 46.5852 38.0557C46.5852 39.9089 45.97 41.7574 44.8061 43.4015C44.5798 43.7211 44.6296 44.1738 44.9212 44.4356C45.2651 44.7445 45.8171 44.6828 46.0839 44.3061C47.436 42.3961 48.1507 40.2347 48.1507 38.0557C48.1507 35.8768 47.436 33.7154 46.0839 31.8053C45.834 31.4525 45.3456 31.3688 44.9926 31.6187Z" fill="#42B8A5" stroke="#42B8A5" stroke-width="1.3"/>
</svg>
