<svg width="70" height="70" viewBox="0 0 70 70" fill="none" xmlns="http://www.w3.org/2000/svg">
<circle cx="35" cy="35" r="35" fill="#EDF5F4"/>
<g clip-path="url(#clip0_238_581)">
<path d="M34.8234 55.0001C34.605 55.0001 34.3917 54.9134 34.2334 54.7567C34.0367 54.5601 33.95 54.2767 34.005 54.0051L35.1834 48.1134C35.2167 47.9501 35.2934 47.8017 35.4117 47.6867L48.375 34.7234C49.3484 33.7501 50.9367 33.7501 51.91 34.7234L54.2667 37.0801C55.2417 38.0551 55.2417 39.6401 54.2667 40.6151L41.3034 53.5784C41.1884 53.6951 41.04 53.7734 40.8767 53.8067L34.985 54.9851C34.9317 54.9951 34.8767 55.0001 34.8234 55.0001ZM36.77 48.6851L35.8867 53.1034L40.305 52.2201L53.09 39.4351C53.415 39.1101 53.415 38.5817 53.09 38.2567L50.7334 35.9001C50.4084 35.5751 49.88 35.5751 49.555 35.9001L36.77 48.6851Z" fill="#42B8A5"/>
<path d="M40.715 52.9884H40.7317M34.8234 55.0001C34.605 55.0001 34.3917 54.9134 34.2334 54.7567C34.0367 54.5601 33.95 54.2767 34.005 54.0051L35.1834 48.1134C35.2167 47.9501 35.2934 47.8017 35.4117 47.6867L48.375 34.7234C49.3484 33.7501 50.9367 33.7501 51.91 34.7234L54.2667 37.0801C55.2417 38.0551 55.2417 39.6401 54.2667 40.6151L41.3034 53.5784C41.1884 53.6951 41.04 53.7734 40.8767 53.8067L34.985 54.9851C34.9317 54.9951 34.8767 55.0001 34.8234 55.0001ZM36.77 48.6851L35.8867 53.1034L40.305 52.2201L53.09 39.4351C53.415 39.1101 53.415 38.5817 53.09 38.2567L50.7334 35.9001C50.4084 35.5751 49.88 35.5751 49.555 35.9001L36.77 48.6851Z" stroke="#42B8A5" stroke-width="0.5"/>
<path d="M30.8333 50H19.1667C16.8683 50 15 48.1317 15 45.8333V24.1667C15 21.8683 16.8683 20 19.1667 20H22.5C22.96 20 23.3333 20.3733 23.3333 20.8333C23.3333 21.2933 22.96 21.6667 22.5 21.6667H19.1667C17.7883 21.6667 16.6667 22.7883 16.6667 24.1667V45.8333C16.6667 47.2117 17.7883 48.3333 19.1667 48.3333H30.8333C31.2933 48.3333 31.6667 48.7067 31.6667 49.1667C31.6667 49.6267 31.2933 50 30.8333 50Z" fill="#42B8A5" stroke="#42B8A5" stroke-width="0.5"/>
<path d="M42.5 35C42.04 35 41.6667 34.6267 41.6667 34.1667V24.1667C41.6667 22.7883 40.545 21.6667 39.1667 21.6667H35.8333C35.3733 21.6667 35 21.2933 35 20.8333C35 20.3733 35.3733 20 35.8333 20H39.1667C41.465 20 43.3333 21.8683 43.3333 24.1667V34.1667C43.3333 34.6267 42.96 35 42.5 35Z" fill="#42B8A5" stroke="#42B8A5" stroke-width="0.5"/>
<path d="M34.1667 25H24.1667C22.7884 25 21.6667 23.8783 21.6667 22.5V19.1667C21.6667 18.7067 22.04 18.3333 22.5 18.3333H25.0834C25.47 16.4333 27.155 15 29.1667 15C31.1784 15 32.8634 16.4333 33.25 18.3333H35.8334C36.2934 18.3333 36.6667 18.7067 36.6667 19.1667V22.5C36.6667 23.8783 35.545 25 34.1667 25ZM23.3334 20V22.5C23.3334 22.9583 23.7084 23.3333 24.1667 23.3333H34.1667C34.625 23.3333 35 22.9583 35 22.5V20H32.5C32.04 20 31.6667 19.6267 31.6667 19.1667C31.6667 17.7883 30.545 16.6667 29.1667 16.6667C27.7884 16.6667 26.6667 17.7883 26.6667 19.1667C26.6667 19.6267 26.2934 20 25.8334 20H23.3334Z" fill="#42B8A5" stroke="#42B8A5" stroke-width="0.5"/>
<path d="M37.5 29.9999H20.8333C20.3733 29.9999 20 29.6266 20 29.1666C20 28.7066 20.3733 28.3333 20.8333 28.3333H37.5C37.96 28.3333 38.3333 28.7066 38.3333 29.1666C38.3333 29.6266 37.96 29.9999 37.5 29.9999Z" fill="#42B8A5" stroke="#42B8A5" stroke-width="0.5"/>
<path d="M37.5 34.9999H20.8333C20.3733 34.9999 20 34.6266 20 34.1666C20 33.7066 20.3733 33.3333 20.8333 33.3333H37.5C37.96 33.3333 38.3333 33.7066 38.3333 34.1666C38.3333 34.6266 37.96 34.9999 37.5 34.9999Z" fill="#42B8A5" stroke="#42B8A5" stroke-width="0.5"/>
<path d="M37.5 39.9999H20.8333C20.3733 39.9999 20 39.6266 20 39.1666C20 38.7066 20.3733 38.3333 20.8333 38.3333H37.5C37.96 38.3333 38.3333 38.7066 38.3333 39.1666C38.3333 39.6266 37.96 39.9999 37.5 39.9999Z" fill="#42B8A5" stroke="#42B8A5" stroke-width="0.5"/>
</g>
<defs>
<clipPath id="clip0_238_581">
<rect width="40" height="40" fill="white" transform="translate(15 15)"/>
</clipPath>
</defs>
</svg>
