<svg width="16" height="16" viewBox="0 0 16 16" fill="none" xmlns="http://www.w3.org/2000/svg">
<g clip-path="url(#clip0_198_790)">
<path d="M12.25 16H8.46875C6.401 16 4.71875 14.3177 4.71875 12.25V11.5938C4.71875 11.2486 4.99856 10.9688 5.34375 10.9688C5.68894 10.9688 5.96875 11.2486 5.96875 11.5938V12.25C5.96875 13.6285 7.09025 14.75 8.46875 14.75H12.25C13.6285 14.75 14.75 13.6285 14.75 12.25V3.75C14.75 2.3715 13.6285 1.25 12.25 1.25H8.46875C7.09025 1.25 5.96875 2.3715 5.96875 3.75V4.375C5.96875 4.72019 5.68894 5 5.34375 5C4.99856 5 4.71875 4.72019 4.71875 4.375V3.75C4.71875 1.68225 6.401 0 8.46875 0H12.25C14.3177 0 16 1.68225 16 3.75V12.25C16 14.3177 14.3177 16 12.25 16Z" fill="#081B17"/>
<path d="M8.03125 11C7.871 11 7.71081 10.9388 7.58872 10.8164C7.34497 10.572 7.3455 10.1763 7.58991 9.93247L9.03644 8.48979C9.15406 8.37257 9.21875 8.21694 9.21875 8.05151C9.21875 7.88672 9.15453 7.73163 9.03788 7.61463L7.59331 6.19591C7.34706 5.95404 7.34347 5.55835 7.58534 5.31207C7.82722 5.06579 8.22291 5.06222 8.46919 5.3041L9.91572 6.72476C9.91684 6.72585 9.91794 6.72694 9.91903 6.72804C10.2735 7.08144 10.4687 7.55148 10.4687 8.05151C10.4687 8.55154 10.2735 9.02154 9.91903 9.37494L8.47256 10.8176C8.35063 10.9392 8.19091 11 8.03125 11ZM8 8.00001C8 7.65482 7.72019 7.37501 7.375 7.37501H0.625C0.279813 7.37501 0 7.65482 0 8.00001C0 8.34519 0.279813 8.62501 0.625 8.62501H7.375C7.72019 8.62501 8 8.34519 8 8.00001Z" fill="#081B17"/>
</g>
<defs>
<clipPath id="clip0_198_790">
<rect width="16" height="16" fill="white"/>
</clipPath>
</defs>
</svg>
