<svg width="16" height="16" viewBox="0 0 16 16" fill="none" xmlns="http://www.w3.org/2000/svg">
<g clip-path="url(#clip0_198_798)">
<path d="M7.98441 0.0155945C5.43916 0.0155945 3.36844 2.08634 3.36844 4.63156C3.36844 6.2081 4.16309 7.60234 5.37272 8.43544C4.24337 8.82516 3.20825 9.46891 2.33862 10.3385C0.830531 11.8467 0 13.8517 0 15.9844H1.24756C1.24756 12.2697 4.26969 9.24756 7.98441 9.24756C10.5297 9.24756 12.6004 7.17681 12.6004 4.63156C12.6004 2.08631 10.5297 0.0155945 7.98441 0.0155945ZM7.98441 8C6.12706 8 4.616 6.48894 4.616 4.63159C4.616 2.77425 6.12706 1.26316 7.98441 1.26316C9.84175 1.26316 11.3528 2.77422 11.3528 4.63159C11.3528 6.48897 9.84175 8 7.98441 8Z" fill="#F2F2F7"/>
<path d="M13.3801 12.117V9.49707H12.1326V12.117H9.51265V13.3645H12.1326V15.9844H13.3801V13.3645H16V12.117H13.3801Z" fill="#F2F2F7"/>
</g>
<defs>
<clipPath id="clip0_198_798">
<rect width="16" height="16" fill="white"/>
</clipPath>
</defs>
</svg>
