<svg width="65" height="65" viewBox="0 0 65 65" fill="none" xmlns="http://www.w3.org/2000/svg">
<g clip-path="url(#clip0_2_60)">
<path d="M41.8832 0.375405C41.5851 0.0614933 41.1765 -0.126953 40.753 -0.126953H15.3966C10.7176 -0.126953 6.85547 3.71983 6.85547 8.39826V56.3475C6.85547 61.0264 10.7176 64.8732 15.3966 64.8732H49.8118C54.4907 64.8732 58.3529 61.0264 58.3529 56.3475V18.2738C58.3529 17.8657 58.1645 17.4734 57.8977 17.1749L41.8832 0.375405ZM42.3384 5.41535L53.062 16.6725H46.091C44.0186 16.6725 42.3384 15.0083 42.3384 12.9359V5.41535ZM49.8118 61.7331H15.3966C12.4608 61.7331 9.99558 59.2996 9.99558 56.3475V8.39826C9.99558 5.46247 12.4449 3.01316 15.3966 3.01316H39.1983V12.9359C39.1983 16.7509 42.276 19.8127 46.091 19.8127H55.2128V56.3475C55.2128 59.2996 52.7635 61.7331 49.8118 61.7331Z" fill="#42B8A5"/>
<path d="M45.5257 50.8999H19.6827C18.8193 50.8999 18.1127 51.606 18.1127 52.4699C18.1127 53.3333 18.8193 54.04 19.6827 54.04H45.5415C46.4049 54.04 47.1116 53.3333 47.1116 52.4699C47.1116 51.606 46.4049 50.8999 45.5257 50.8999Z" fill="#42B8A5"/>
<path d="M24.5654 34.0061L31.0341 27.0505V44.1956C31.0341 45.059 31.7408 45.7657 32.6042 45.7657C33.4681 45.7657 34.1742 45.059 34.1742 44.1956V27.0505L40.6429 34.0061C40.9568 34.3354 41.3654 34.5085 41.789 34.5085C42.1658 34.5085 42.5586 34.3672 42.8567 34.0845C43.485 33.4879 43.5321 32.4986 42.9355 31.8707L33.7349 21.9952C33.4363 21.6813 33.0282 21.4928 32.5888 21.4928C32.1489 21.4928 31.7408 21.6813 31.4427 21.9952L22.2421 31.8707C21.6455 32.4986 21.6926 33.5033 22.3205 34.0845C22.98 34.6811 23.9689 34.634 24.5654 34.0061Z" fill="#42B8A5"/>
</g>
<defs>
<clipPath id="clip0_2_60">
<rect width="65" height="65" fill="white"/>
</clipPath>
</defs>
</svg>
