<svg width="100" height="100" viewBox="0 0 62 62" fill="none" xmlns="http://www.w3.org/2000/svg">
<g filter="url(#filter0_d_211_965)">
<circle cx="30" cy="29" r="28" fill="#CBD5E1"/>
</g>
<g clip-path="url(#clip0_211_965)">
<path d="M33.7533 16.1502C33.634 16.0246 33.4706 15.9492 33.3012 15.9492H23.1586C21.287 15.9492 19.7422 17.4879 19.7422 19.3593V38.539C19.7422 40.4106 21.287 41.9493 23.1586 41.9493H36.9247C38.7963 41.9493 40.3411 40.4106 40.3411 38.539V23.3095C40.3411 23.1463 40.2658 22.9894 40.159 22.87L33.7533 16.1502ZM33.9354 18.1661L38.2248 22.669H35.4364C34.6074 22.669 33.9354 22.0033 33.9354 21.1743V18.1661ZM36.9247 40.6932H23.1586C21.9843 40.6932 20.9982 39.7198 20.9982 38.539V19.3593C20.9982 18.185 21.9779 17.2053 23.1586 17.2053H32.6793V21.1743C32.6793 22.7004 33.9104 23.9251 35.4364 23.9251H39.0851V38.539C39.0851 39.7198 38.1054 40.6932 36.9247 40.6932Z" fill="#081B17"/>
<path d="M35.2103 36.36H24.8731C24.5277 36.36 24.2451 36.6424 24.2451 36.988C24.2451 37.3333 24.5277 37.616 24.8731 37.616H35.2166C35.562 37.616 35.8446 37.3333 35.8446 36.988C35.8446 36.6424 35.562 36.36 35.2103 36.36Z" fill="#081B17"/>
<path d="M26.8262 29.6025L29.4136 26.8202V33.6783C29.4136 34.0236 29.6963 34.3063 30.0417 34.3063C30.3872 34.3063 30.6697 34.0236 30.6697 33.6783V26.8202L33.2572 29.6025C33.3827 29.7342 33.5462 29.8034 33.7156 29.8034C33.8663 29.8034 34.0234 29.7469 34.1427 29.6338C34.394 29.3952 34.4128 28.9994 34.1742 28.7483L30.4939 24.7981C30.3745 24.6725 30.2113 24.5971 30.0355 24.5971C29.8596 24.5971 29.6963 24.6725 29.5771 24.7981L25.8968 28.7483C25.6582 28.9994 25.677 29.4013 25.9282 29.6338C26.192 29.8724 26.5875 29.8536 26.8262 29.6025Z" fill="#081B17"/>
</g>
<defs>
<filter id="filter0_d_211_965" x="0" y="0" width="62" height="62" filterUnits="userSpaceOnUse" color-interpolation-filters="sRGB">
<feFlood flood-opacity="0" result="BackgroundImageFix"/>
<feColorMatrix in="SourceAlpha" type="matrix" values="0 0 0 0 0 0 0 0 0 0 0 0 0 0 0 0 0 0 127 0" result="hardAlpha"/>
<feOffset dx="1" dy="2"/>
<feGaussianBlur stdDeviation="1.5"/>
<feComposite in2="hardAlpha" operator="out"/>
<feColorMatrix type="matrix" values="0 0 0 0 0 0 0 0 0 0 0 0 0 0 0 0 0 0 0.1 0"/>
<feBlend mode="normal" in2="BackgroundImageFix" result="effect1_dropShadow_211_965"/>
<feBlend mode="normal" in="SourceGraphic" in2="effect1_dropShadow_211_965" result="shape"/>
</filter>
<clipPath id="clip0_211_965">
<rect width="26" height="26" fill="white" transform="translate(17 16)"/>
</clipPath>
</defs>
</svg>
