<svg width="80" height="80" viewBox="0 0 80 80" fill="none" xmlns="http://www.w3.org/2000/svg">
<g clip-path="url(#clip0_5_109)">
<path d="M72.0728 0H7.92725C3.54915 0 0 3.54915 0 7.92725V72.0728C0 76.4509 3.54915 80 7.92725 80H72.0728C76.4509 80 80 76.4509 80 72.0728V7.92725C80 3.54915 76.4509 0 72.0728 0Z" fill="#EFFAF8"/>
<path d="M53.6722 14.5921C51.9013 13.4623 49.8975 12.7483 47.8112 12.5038C45.7249 12.2592 43.6103 12.4904 41.6262 13.18C38.62 14.3354 36.3306 16.7425 34.3622 19.1923C33.6133 20.0909 32.8645 20.9896 32.0728 21.8561C31.5392 22.5203 30.877 23.0697 30.1258 23.4715C29.802 23.6575 29.4373 23.7607 29.064 23.7719C28.6908 23.7831 28.3205 23.702 27.9862 23.5357C27.1624 23.0222 26.7666 21.8989 25.7503 21.6849C24.5521 21.5993 24.06 23.0543 23.9102 24.0171C23.7127 26.9149 24.1773 29.8197 25.2689 32.5114C26.5526 36.1059 27.8792 39.8609 27.5368 43.755C27.1918 47.208 25.961 50.5134 23.9637 53.3512C22.4446 55.5871 20.7543 57.8978 20.444 60.6472C20.2454 62.2344 20.6611 63.8374 21.6057 65.1281C22.5504 66.4188 23.9527 67.2997 25.5256 67.5903C28.4997 68.061 31.11 65.8679 32.6291 63.5357C34.1083 61.2354 34.892 58.5572 34.8864 55.8224C34.8655 53.3502 34.5858 50.8869 34.0519 48.4729C32.9073 43.3699 31.11 38.0744 32.9821 32.9072C33.4784 31.189 34.3767 29.6136 35.6026 28.3113C36.8286 27.0091 38.3469 26.0175 40.0322 25.4186C41.4043 24.9155 42.8977 24.8446 44.3114 25.2153C45.5117 25.5942 46.5663 26.3334 47.3319 27.3325C48.0975 28.3316 48.5369 29.5421 48.5906 30.7997C48.6543 31.8134 48.4958 32.8288 48.1262 33.7749C47.7567 34.721 47.1849 35.5749 46.451 36.2771C45.4784 37.0093 44.3386 37.4873 43.1346 37.6678C42.4934 37.769 41.8468 37.8333 41.1982 37.8604C40.4922 37.9567 39.3047 37.7106 38.8233 38.2883C38.1493 39.2512 39.8931 40.0107 40.6527 40.2568C41.6262 40.5492 42.6258 40.7462 43.6374 40.8451C46.1373 41.1399 48.67 40.7432 50.96 39.6982C53.25 38.6531 55.2094 36.9999 56.6248 34.9184C61.4069 28.1572 60.5724 19.4597 53.6722 14.5921Z" fill="#42B8A5"/>
<path d="M56.7853 62.1131C56.3996 61.8406 55.942 61.6881 55.47 61.6748C54.998 61.6615 54.5326 61.7879 54.1322 62.0382C52.0888 62.7336 51.2544 65.515 52.6344 66.7132C54.0145 67.9114 56.4536 67.1946 57.3844 65.1727C57.6659 64.6751 57.7603 64.0932 57.6504 63.5322C57.5406 62.9711 57.2337 62.4678 56.7853 62.1131Z" fill="#42B8A5"/>
</g>
<defs>
<clipPath id="clip0_5_109">
<rect width="80" height="80" fill="white"/>
</clipPath>
</defs>
</svg>
