<svg width="52" height="52" viewBox="0 0 52 52" fill="none" xmlns="http://www.w3.org/2000/svg">
<path d="M46.8473 0H5.15271C2.30695 0 0 2.30695 0 5.15271V46.8473C0 49.6931 2.30695 52 5.15271 52H46.8473C49.6931 52 52 49.6931 52 46.8473V5.15271C52 2.30695 49.6931 0 46.8473 0Z" fill="#42B8A5"/>
<path d="M34.8868 9.48489C33.7357 8.75051 32.4333 8.28644 31.0772 8.12746C29.7211 7.96849 28.3466 8.11877 27.0569 8.56702C25.1029 9.31802 23.6148 10.8826 22.3353 12.475C21.8485 13.0591 21.3618 13.6432 20.8472 14.2065C20.5004 14.6382 20.0699 14.9953 19.5816 15.2565C19.3712 15.3774 19.1341 15.4445 18.8915 15.4518C18.6489 15.459 18.4082 15.4063 18.1909 15.2982C17.6555 14.9644 17.3982 14.2343 16.7376 14.0952C15.9587 14.0396 15.6389 14.9853 15.5415 15.6111C15.4131 17.4947 15.7151 19.3828 16.4246 21.1324C17.2591 23.4688 18.1213 25.9096 17.8988 28.4408C17.6745 30.6852 16.8745 32.8337 15.5763 34.6783C14.5888 36.1316 13.4902 37.6336 13.2885 39.4207C13.1594 40.4524 13.4296 41.4943 14.0436 42.3333C14.6576 43.1722 15.5691 43.7448 16.5915 43.9337C18.5247 44.2396 20.2214 42.8141 21.2088 41.2982C22.1702 39.8031 22.6797 38.0622 22.676 36.2846C22.6625 34.6776 22.4807 33.0765 22.1336 31.5074C21.3896 28.1904 20.2214 24.7484 21.4383 21.3897C21.7609 20.2728 22.3447 19.2488 23.1416 18.4024C23.9384 17.5559 24.9254 16.9114 26.0208 16.5221C26.9127 16.1951 27.8834 16.149 28.8023 16.39C29.5825 16.6362 30.268 17.1167 30.7656 17.7661C31.2632 18.4155 31.5489 19.2024 31.5838 20.0198C31.6252 20.6787 31.5222 21.3387 31.2819 21.9537C31.0417 22.5687 30.6701 23.1237 30.193 23.5801C29.5608 24.0561 28.8199 24.3668 28.0374 24.4841C27.6206 24.5499 27.2003 24.5917 26.7787 24.6093C26.3198 24.6718 25.5479 24.5119 25.235 24.8874C24.7969 25.5133 25.9304 26.007 26.4241 26.1669C27.0569 26.357 27.7066 26.485 28.3642 26.5494C29.9891 26.7409 31.6354 26.4831 33.1239 25.8038C34.6124 25.1246 35.886 24.0499 36.806 22.697C39.9143 18.3022 39.3719 12.6488 34.8868 9.48489Z" fill="white"/>
<path d="M36.9104 40.3734C36.6597 40.1963 36.3623 40.0971 36.0555 40.0885C35.7487 40.0798 35.4462 40.162 35.1859 40.3247C33.8577 40.7767 33.3153 42.5847 34.2124 43.3635C35.1094 44.1423 36.6948 43.6764 37.2998 42.3621C37.4828 42.0387 37.5442 41.6605 37.4728 41.2958C37.4014 40.9311 37.2019 40.6039 36.9104 40.3734Z" fill="white"/>
</svg>
