<svg width="1500" height="530" viewBox="0 0 1500 530" fill="none" xmlns="http://www.w3.org/2000/svg">
<g clip-path="url(#clip0_3_9706)">
<circle cx="2" cy="2" r="2" fill="#D2DBD6"/>
<circle cx="36" cy="2" r="2" fill="#D2DBD6"/>
<circle cx="70" cy="2" r="2" fill="#D2DBD6"/>
<circle cx="104" cy="2" r="2" fill="#D2DBD6"/>
<circle cx="138" cy="2" r="2" fill="#D2DBD6"/>
<circle cx="172" cy="2" r="2" fill="#D2DBD6"/>
<circle cx="206" cy="2" r="2" fill="#D2DBD6"/>
<circle cx="240" cy="2" r="2" fill="#D2DBD6"/>
<circle cx="274" cy="2" r="2" fill="#D2DBD6"/>
<circle cx="308" cy="2" r="2" fill="#D2DBD6"/>
<circle cx="342" cy="2" r="2" fill="#D2DBD6"/>
<circle cx="376" cy="2" r="2" fill="#D2DBD6"/>
<circle cx="410" cy="2" r="2" fill="#D2DBD6"/>
<circle cx="444" cy="2" r="2" fill="#D2DBD6"/>
<circle cx="478" cy="2" r="2" fill="#D2DBD6"/>
<circle cx="512" cy="2" r="2" fill="#D2DBD6"/>
<circle cx="546" cy="2" r="2" fill="#D2DBD6"/>
<circle cx="580" cy="2" r="2" fill="#D2DBD6"/>
<circle cx="614" cy="2" r="2" fill="#D2DBD6"/>
<circle cx="648" cy="2" r="2" fill="#D2DBD6"/>
<circle cx="682" cy="2" r="2" fill="#D2DBD6"/>
<circle cx="716" cy="2" r="2" fill="#D2DBD6"/>
<circle cx="750" cy="2" r="2" fill="#D2DBD6"/>
<circle cx="784" cy="2" r="2" fill="#D2DBD6"/>
<circle cx="818" cy="2" r="2" fill="#D2DBD6"/>
<circle cx="852" cy="2" r="2" fill="#D2DBD6"/>
<circle cx="886" cy="2" r="2" fill="#D2DBD6"/>
<circle cx="920" cy="2" r="2" fill="#D2DBD6"/>
<circle cx="954" cy="2" r="2" fill="#D2DBD6"/>
<circle cx="988" cy="2" r="2" fill="#D2DBD6"/>
<circle cx="1022" cy="2" r="2" fill="#D2DBD6"/>
<circle cx="1056" cy="2" r="2" fill="#D2DBD6"/>
<circle cx="1090" cy="2" r="2" fill="#D2DBD6"/>
<circle cx="1124" cy="2" r="2" fill="#D2DBD6"/>
<circle cx="1158" cy="2" r="2" fill="#D2DBD6"/>
<circle cx="1192" cy="2" r="2" fill="#D2DBD6"/>
<circle cx="1226" cy="2" r="2" fill="#D2DBD6"/>
<circle cx="1260" cy="2" r="2" fill="#D2DBD6"/>
<circle cx="1294" cy="2" r="2" fill="#D2DBD6"/>
<circle cx="1328" cy="2" r="2" fill="#D2DBD6"/>
<circle cx="1362" cy="2" r="2" fill="#D2DBD6"/>
<circle cx="1396" cy="2" r="2" fill="#D2DBD6"/>
<circle cx="1430" cy="2" r="2" fill="#D2DBD6"/>
<circle cx="1464" cy="2" r="2" fill="#D2DBD6"/>
<circle cx="1498" cy="2" r="2" fill="#D2DBD6"/>
<circle cx="2" cy="36" r="2" fill="#D2DBD6"/>
<circle cx="36" cy="36" r="2" fill="#D2DBD6"/>
<circle cx="70" cy="36" r="2" fill="#D2DBD6"/>
<circle cx="104" cy="36" r="2" fill="#D2DBD6"/>
<circle cx="138" cy="36" r="2" fill="#D2DBD6"/>
<circle cx="172" cy="36" r="2" fill="#D2DBD6"/>
<circle cx="206" cy="36" r="2" fill="#D2DBD6"/>
<circle cx="240" cy="36" r="2" fill="#D2DBD6"/>
<circle cx="274" cy="36" r="2" fill="#D2DBD6"/>
<circle cx="308" cy="36" r="2" fill="#D2DBD6"/>
<circle cx="342" cy="36" r="2" fill="#D2DBD6"/>
<circle cx="376" cy="36" r="2" fill="#D2DBD6"/>
<circle cx="410" cy="36" r="2" fill="#D2DBD6"/>
<circle cx="444" cy="36" r="2" fill="#D2DBD6"/>
<circle cx="478" cy="36" r="2" fill="#D2DBD6"/>
<circle cx="512" cy="36" r="2" fill="#D2DBD6"/>
<circle cx="546" cy="36" r="2" fill="#D2DBD6"/>
<circle cx="580" cy="36" r="2" fill="#D2DBD6"/>
<circle cx="614" cy="36" r="2" fill="#D2DBD6"/>
<circle cx="648" cy="36" r="2" fill="#D2DBD6"/>
<circle cx="682" cy="36" r="2" fill="#D2DBD6"/>
<circle cx="716" cy="36" r="2" fill="#D2DBD6"/>
<circle cx="750" cy="36" r="2" fill="#D2DBD6"/>
<circle cx="784" cy="36" r="2" fill="#D2DBD6"/>
<circle cx="818" cy="36" r="2" fill="#D2DBD6"/>
<circle cx="852" cy="36" r="2" fill="#D2DBD6"/>
<circle cx="886" cy="36" r="2" fill="#D2DBD6"/>
<circle cx="920" cy="36" r="2" fill="#D2DBD6"/>
<circle cx="954" cy="36" r="2" fill="#D2DBD6"/>
<circle cx="988" cy="36" r="2" fill="#D2DBD6"/>
<circle cx="1022" cy="36" r="2" fill="#D2DBD6"/>
<circle cx="1056" cy="36" r="2" fill="#D2DBD6"/>
<circle cx="1090" cy="36" r="2" fill="#D2DBD6"/>
<circle cx="1124" cy="36" r="2" fill="#D2DBD6"/>
<circle cx="1158" cy="36" r="2" fill="#D2DBD6"/>
<circle cx="1192" cy="36" r="2" fill="#D2DBD6"/>
<circle cx="1226" cy="36" r="2" fill="#D2DBD6"/>
<circle cx="1260" cy="36" r="2" fill="#D2DBD6"/>
<circle cx="1294" cy="36" r="2" fill="#D2DBD6"/>
<circle cx="1328" cy="36" r="2" fill="#D2DBD6"/>
<circle cx="1362" cy="36" r="2" fill="#D2DBD6"/>
<circle cx="1396" cy="36" r="2" fill="#D2DBD6"/>
<circle cx="1430" cy="36" r="2" fill="#D2DBD6"/>
<circle cx="1464" cy="36" r="2" fill="#D2DBD6"/>
<circle cx="1498" cy="36" r="2" fill="#D2DBD6"/>
<circle cx="2" cy="70" r="2" fill="#D2DBD6"/>
<circle cx="36" cy="70" r="2" fill="#D2DBD6"/>
<circle cx="70" cy="70" r="2" fill="#D2DBD6"/>
<circle cx="104" cy="70" r="2" fill="#D2DBD6"/>
<circle cx="138" cy="70" r="2" fill="#D2DBD6"/>
<circle cx="172" cy="70" r="2" fill="#D2DBD6"/>
<circle cx="206" cy="70" r="2" fill="#D2DBD6"/>
<circle cx="240" cy="70" r="2" fill="#D2DBD6"/>
<circle cx="274" cy="70" r="2" fill="#D2DBD6"/>
<circle cx="308" cy="70" r="2" fill="#D2DBD6"/>
<circle cx="342" cy="70" r="2" fill="#D2DBD6"/>
<circle cx="376" cy="70" r="2" fill="#D2DBD6"/>
<circle cx="410" cy="70" r="2" fill="#D2DBD6"/>
<circle cx="444" cy="70" r="2" fill="#D2DBD6"/>
<circle cx="478" cy="70" r="2" fill="#D2DBD6"/>
<circle cx="512" cy="70" r="2" fill="#D2DBD6"/>
<circle cx="546" cy="70" r="2" fill="#D2DBD6"/>
<circle cx="580" cy="70" r="2" fill="#D2DBD6"/>
<circle cx="614" cy="70" r="2" fill="#D2DBD6"/>
<circle cx="648" cy="70" r="2" fill="#D2DBD6"/>
<circle cx="682" cy="70" r="2" fill="#D2DBD6"/>
<circle cx="716" cy="70" r="2" fill="#D2DBD6"/>
<circle cx="750" cy="70" r="2" fill="#D2DBD6"/>
<circle cx="784" cy="70" r="2" fill="#D2DBD6"/>
<circle cx="818" cy="70" r="2" fill="#D2DBD6"/>
<circle cx="852" cy="70" r="2" fill="#D2DBD6"/>
<circle cx="886" cy="70" r="2" fill="#D2DBD6"/>
<circle cx="920" cy="70" r="2" fill="#D2DBD6"/>
<circle cx="954" cy="70" r="2" fill="#D2DBD6"/>
<circle cx="988" cy="70" r="2" fill="#D2DBD6"/>
<circle cx="1022" cy="70" r="2" fill="#D2DBD6"/>
<circle cx="1056" cy="70" r="2" fill="#D2DBD6"/>
<circle cx="1090" cy="70" r="2" fill="#D2DBD6"/>
<circle cx="1124" cy="70" r="2" fill="#D2DBD6"/>
<circle cx="1158" cy="70" r="2" fill="#D2DBD6"/>
<circle cx="1192" cy="70" r="2" fill="#D2DBD6"/>
<circle cx="1226" cy="70" r="2" fill="#D2DBD6"/>
<circle cx="1260" cy="70" r="2" fill="#D2DBD6"/>
<circle cx="1294" cy="70" r="2" fill="#D2DBD6"/>
<circle cx="1328" cy="70" r="2" fill="#D2DBD6"/>
<circle cx="1362" cy="70" r="2" fill="#D2DBD6"/>
<circle cx="1396" cy="70" r="2" fill="#D2DBD6"/>
<circle cx="1430" cy="70" r="2" fill="#D2DBD6"/>
<circle cx="1464" cy="70" r="2" fill="#D2DBD6"/>
<circle cx="1498" cy="70" r="2" fill="#D2DBD6"/>
<circle cx="2" cy="104" r="2" fill="#D2DBD6"/>
<circle cx="36" cy="104" r="2" fill="#D2DBD6"/>
<circle cx="70" cy="104" r="2" fill="#D2DBD6"/>
<circle cx="104" cy="104" r="2" fill="#D2DBD6"/>
<circle cx="138" cy="104" r="2" fill="#D2DBD6"/>
<circle cx="172" cy="104" r="2" fill="#D2DBD6"/>
<circle cx="206" cy="104" r="2" fill="#D2DBD6"/>
<circle cx="240" cy="104" r="2" fill="#D2DBD6"/>
<circle cx="274" cy="104" r="2" fill="#D2DBD6"/>
<circle cx="308" cy="104" r="2" fill="#D2DBD6"/>
<circle cx="342" cy="104" r="2" fill="#D2DBD6"/>
<circle cx="376" cy="104" r="2" fill="#D2DBD6"/>
<circle cx="410" cy="104" r="2" fill="#D2DBD6"/>
<circle cx="444" cy="104" r="2" fill="#D2DBD6"/>
<circle cx="478" cy="104" r="2" fill="#D2DBD6"/>
<circle cx="512" cy="104" r="2" fill="#D2DBD6"/>
<circle cx="546" cy="104" r="2" fill="#D2DBD6"/>
<circle cx="580" cy="104" r="2" fill="#D2DBD6"/>
<circle cx="614" cy="104" r="2" fill="#D2DBD6"/>
<circle cx="648" cy="104" r="2" fill="#D2DBD6"/>
<circle cx="682" cy="104" r="2" fill="#D2DBD6"/>
<circle cx="716" cy="104" r="2" fill="#D2DBD6"/>
<circle cx="750" cy="104" r="2" fill="#D2DBD6"/>
<circle cx="784" cy="104" r="2" fill="#D2DBD6"/>
<circle cx="818" cy="104" r="2" fill="#D2DBD6"/>
<circle cx="852" cy="104" r="2" fill="#D2DBD6"/>
<circle cx="886" cy="104" r="2" fill="#D2DBD6"/>
<circle cx="920" cy="104" r="2" fill="#D2DBD6"/>
<circle cx="954" cy="104" r="2" fill="#D2DBD6"/>
<circle cx="988" cy="104" r="2" fill="#D2DBD6"/>
<circle cx="1022" cy="104" r="2" fill="#D2DBD6"/>
<circle cx="1056" cy="104" r="2" fill="#D2DBD6"/>
<circle cx="1090" cy="104" r="2" fill="#D2DBD6"/>
<circle cx="1124" cy="104" r="2" fill="#D2DBD6"/>
<circle cx="1158" cy="104" r="2" fill="#D2DBD6"/>
<circle cx="1192" cy="104" r="2" fill="#D2DBD6"/>
<circle cx="1226" cy="104" r="2" fill="#D2DBD6"/>
<circle cx="1260" cy="104" r="2" fill="#D2DBD6"/>
<circle cx="1294" cy="104" r="2" fill="#D2DBD6"/>
<circle cx="1328" cy="104" r="2" fill="#D2DBD6"/>
<circle cx="1362" cy="104" r="2" fill="#D2DBD6"/>
<circle cx="1396" cy="104" r="2" fill="#D2DBD6"/>
<circle cx="1430" cy="104" r="2" fill="#D2DBD6"/>
<circle cx="1464" cy="104" r="2" fill="#D2DBD6"/>
<circle cx="1498" cy="104" r="2" fill="#D2DBD6"/>
<circle cx="2" cy="138" r="2" fill="#D2DBD6"/>
<circle cx="36" cy="138" r="2" fill="#D2DBD6"/>
<circle cx="70" cy="138" r="2" fill="#D2DBD6"/>
<circle cx="104" cy="138" r="2" fill="#D2DBD6"/>
<circle cx="138" cy="138" r="2" fill="#D2DBD6"/>
<circle cx="172" cy="138" r="2" fill="#D2DBD6"/>
<circle cx="206" cy="138" r="2" fill="#D2DBD6"/>
<circle cx="240" cy="138" r="2" fill="#D2DBD6"/>
<circle cx="274" cy="138" r="2" fill="#D2DBD6"/>
<circle cx="308" cy="138" r="2" fill="#D2DBD6"/>
<circle cx="342" cy="138" r="2" fill="#D2DBD6"/>
<circle cx="376" cy="138" r="2" fill="#D2DBD6"/>
<circle cx="410" cy="138" r="2" fill="#D2DBD6"/>
<circle cx="444" cy="138" r="2" fill="#D2DBD6"/>
<circle cx="478" cy="138" r="2" fill="#D2DBD6"/>
<circle cx="512" cy="138" r="2" fill="#D2DBD6"/>
<circle cx="546" cy="138" r="2" fill="#D2DBD6"/>
<circle cx="580" cy="138" r="2" fill="#D2DBD6"/>
<circle cx="614" cy="138" r="2" fill="#D2DBD6"/>
<circle cx="648" cy="138" r="2" fill="#D2DBD6"/>
<circle cx="682" cy="138" r="2" fill="#D2DBD6"/>
<circle cx="716" cy="138" r="2" fill="#D2DBD6"/>
<circle cx="750" cy="138" r="2" fill="#D2DBD6"/>
<circle cx="784" cy="138" r="2" fill="#D2DBD6"/>
<circle cx="818" cy="138" r="2" fill="#D2DBD6"/>
<circle cx="852" cy="138" r="2" fill="#D2DBD6"/>
<circle cx="886" cy="138" r="2" fill="#D2DBD6"/>
<circle cx="920" cy="138" r="2" fill="#D2DBD6"/>
<circle cx="954" cy="138" r="2" fill="#D2DBD6"/>
<circle cx="988" cy="138" r="2" fill="#D2DBD6"/>
<circle cx="1022" cy="138" r="2" fill="#D2DBD6"/>
<circle cx="1056" cy="138" r="2" fill="#D2DBD6"/>
<circle cx="1090" cy="138" r="2" fill="#D2DBD6"/>
<circle cx="1124" cy="138" r="2" fill="#D2DBD6"/>
<circle cx="1158" cy="138" r="2" fill="#D2DBD6"/>
<circle cx="1192" cy="138" r="2" fill="#D2DBD6"/>
<circle cx="1226" cy="138" r="2" fill="#D2DBD6"/>
<circle cx="1260" cy="138" r="2" fill="#D2DBD6"/>
<circle cx="1294" cy="138" r="2" fill="#D2DBD6"/>
<circle cx="1328" cy="138" r="2" fill="#D2DBD6"/>
<circle cx="1362" cy="138" r="2" fill="#D2DBD6"/>
<circle cx="1396" cy="138" r="2" fill="#D2DBD6"/>
<circle cx="1430" cy="138" r="2" fill="#D2DBD6"/>
<circle cx="1464" cy="138" r="2" fill="#D2DBD6"/>
<circle cx="1498" cy="138" r="2" fill="#D2DBD6"/>
<circle cx="2" cy="172" r="2" fill="#D2DBD6"/>
<circle cx="36" cy="172" r="2" fill="#D2DBD6"/>
<circle cx="70" cy="172" r="2" fill="#D2DBD6"/>
<circle cx="104" cy="172" r="2" fill="#D2DBD6"/>
<circle cx="138" cy="172" r="2" fill="#D2DBD6"/>
<circle cx="172" cy="172" r="2" fill="#D2DBD6"/>
<circle cx="206" cy="172" r="2" fill="#D2DBD6"/>
<circle cx="240" cy="172" r="2" fill="#D2DBD6"/>
<circle cx="274" cy="172" r="2" fill="#D2DBD6"/>
<circle cx="308" cy="172" r="2" fill="#D2DBD6"/>
<circle cx="342" cy="172" r="2" fill="#D2DBD6"/>
<circle cx="376" cy="172" r="2" fill="#D2DBD6"/>
<circle cx="410" cy="172" r="2" fill="#D2DBD6"/>
<circle cx="444" cy="172" r="2" fill="#D2DBD6"/>
<circle cx="478" cy="172" r="2" fill="#D2DBD6"/>
<circle cx="512" cy="172" r="2" fill="#D2DBD6"/>
<circle cx="546" cy="172" r="2" fill="#D2DBD6"/>
<circle cx="580" cy="172" r="2" fill="#D2DBD6"/>
<circle cx="614" cy="172" r="2" fill="#D2DBD6"/>
<circle cx="648" cy="172" r="2" fill="#D2DBD6"/>
<circle cx="682" cy="172" r="2" fill="#D2DBD6"/>
<circle cx="716" cy="172" r="2" fill="#D2DBD6"/>
<circle cx="750" cy="172" r="2" fill="#D2DBD6"/>
<circle cx="784" cy="172" r="2" fill="#D2DBD6"/>
<circle cx="818" cy="172" r="2" fill="#D2DBD6"/>
<circle cx="852" cy="172" r="2" fill="#D2DBD6"/>
<circle cx="886" cy="172" r="2" fill="#D2DBD6"/>
<circle cx="920" cy="172" r="2" fill="#D2DBD6"/>
<circle cx="954" cy="172" r="2" fill="#D2DBD6"/>
<circle cx="988" cy="172" r="2" fill="#D2DBD6"/>
<circle cx="1022" cy="172" r="2" fill="#D2DBD6"/>
<circle cx="1056" cy="172" r="2" fill="#D2DBD6"/>
<circle cx="1090" cy="172" r="2" fill="#D2DBD6"/>
<circle cx="1124" cy="172" r="2" fill="#D2DBD6"/>
<circle cx="1158" cy="172" r="2" fill="#D2DBD6"/>
<circle cx="1192" cy="172" r="2" fill="#D2DBD6"/>
<circle cx="1226" cy="172" r="2" fill="#D2DBD6"/>
<circle cx="1260" cy="172" r="2" fill="#D2DBD6"/>
<circle cx="1294" cy="172" r="2" fill="#D2DBD6"/>
<circle cx="1328" cy="172" r="2" fill="#D2DBD6"/>
<circle cx="1362" cy="172" r="2" fill="#D2DBD6"/>
<circle cx="1396" cy="172" r="2" fill="#D2DBD6"/>
<circle cx="1430" cy="172" r="2" fill="#D2DBD6"/>
<circle cx="1464" cy="172" r="2" fill="#D2DBD6"/>
<circle cx="1498" cy="172" r="2" fill="#D2DBD6"/>
<circle cx="2" cy="206" r="2" fill="#D2DBD6"/>
<circle cx="36" cy="206" r="2" fill="#D2DBD6"/>
<circle cx="70" cy="206" r="2" fill="#D2DBD6"/>
<circle cx="104" cy="206" r="2" fill="#D2DBD6"/>
<circle cx="138" cy="206" r="2" fill="#D2DBD6"/>
<circle cx="172" cy="206" r="2" fill="#D2DBD6"/>
<circle cx="206" cy="206" r="2" fill="#D2DBD6"/>
<circle cx="240" cy="206" r="2" fill="#D2DBD6"/>
<circle cx="274" cy="206" r="2" fill="#D2DBD6"/>
<circle cx="308" cy="206" r="2" fill="#D2DBD6"/>
<circle cx="342" cy="206" r="2" fill="#D2DBD6"/>
<circle cx="376" cy="206" r="2" fill="#D2DBD6"/>
<circle cx="410" cy="206" r="2" fill="#D2DBD6"/>
<circle cx="444" cy="206" r="2" fill="#D2DBD6"/>
<circle cx="478" cy="206" r="2" fill="#D2DBD6"/>
<circle cx="512" cy="206" r="2" fill="#D2DBD6"/>
<circle cx="546" cy="206" r="2" fill="#D2DBD6"/>
<circle cx="580" cy="206" r="2" fill="#D2DBD6"/>
<circle cx="614" cy="206" r="2" fill="#D2DBD6"/>
<circle cx="648" cy="206" r="2" fill="#D2DBD6"/>
<circle cx="682" cy="206" r="2" fill="#D2DBD6"/>
<circle cx="716" cy="206" r="2" fill="#D2DBD6"/>
<circle cx="750" cy="206" r="2" fill="#D2DBD6"/>
<circle cx="784" cy="206" r="2" fill="#D2DBD6"/>
<circle cx="818" cy="206" r="2" fill="#D2DBD6"/>
<circle cx="852" cy="206" r="2" fill="#D2DBD6"/>
<circle cx="886" cy="206" r="2" fill="#D2DBD6"/>
<circle cx="920" cy="206" r="2" fill="#D2DBD6"/>
<circle cx="954" cy="206" r="2" fill="#D2DBD6"/>
<circle cx="988" cy="206" r="2" fill="#D2DBD6"/>
<circle cx="1022" cy="206" r="2" fill="#D2DBD6"/>
<circle cx="1056" cy="206" r="2" fill="#D2DBD6"/>
<circle cx="1090" cy="206" r="2" fill="#D2DBD6"/>
<circle cx="1124" cy="206" r="2" fill="#D2DBD6"/>
<circle cx="1158" cy="206" r="2" fill="#D2DBD6"/>
<circle cx="1192" cy="206" r="2" fill="#D2DBD6"/>
<circle cx="1226" cy="206" r="2" fill="#D2DBD6"/>
<circle cx="1260" cy="206" r="2" fill="#D2DBD6"/>
<circle cx="1294" cy="206" r="2" fill="#D2DBD6"/>
<circle cx="1328" cy="206" r="2" fill="#D2DBD6"/>
<circle cx="1362" cy="206" r="2" fill="#D2DBD6"/>
<circle cx="1396" cy="206" r="2" fill="#D2DBD6"/>
<circle cx="1430" cy="206" r="2" fill="#D2DBD6"/>
<circle cx="1464" cy="206" r="2" fill="#D2DBD6"/>
<circle cx="1498" cy="206" r="2" fill="#D2DBD6"/>
<circle cx="2" cy="240" r="2" fill="#D2DBD6"/>
<circle cx="36" cy="240" r="2" fill="#D2DBD6"/>
<circle cx="70" cy="240" r="2" fill="#D2DBD6"/>
<circle cx="104" cy="240" r="2" fill="#D2DBD6"/>
<circle cx="138" cy="240" r="2" fill="#D2DBD6"/>
<circle cx="172" cy="240" r="2" fill="#D2DBD6"/>
<circle cx="206" cy="240" r="2" fill="#D2DBD6"/>
<circle cx="240" cy="240" r="2" fill="#D2DBD6"/>
<circle cx="274" cy="240" r="2" fill="#D2DBD6"/>
<circle cx="308" cy="240" r="2" fill="#D2DBD6"/>
<circle cx="342" cy="240" r="2" fill="#D2DBD6"/>
<circle cx="376" cy="240" r="2" fill="#D2DBD6"/>
<circle cx="410" cy="240" r="2" fill="#D2DBD6"/>
<circle cx="444" cy="240" r="2" fill="#D2DBD6"/>
<circle cx="478" cy="240" r="2" fill="#D2DBD6"/>
<circle cx="512" cy="240" r="2" fill="#D2DBD6"/>
<circle cx="546" cy="240" r="2" fill="#D2DBD6"/>
<circle cx="580" cy="240" r="2" fill="#D2DBD6"/>
<circle cx="614" cy="240" r="2" fill="#D2DBD6"/>
<circle cx="648" cy="240" r="2" fill="#D2DBD6"/>
<circle cx="682" cy="240" r="2" fill="#D2DBD6"/>
<circle cx="716" cy="240" r="2" fill="#D2DBD6"/>
<circle cx="750" cy="240" r="2" fill="#D2DBD6"/>
<circle cx="784" cy="240" r="2" fill="#D2DBD6"/>
<circle cx="818" cy="240" r="2" fill="#D2DBD6"/>
<circle cx="852" cy="240" r="2" fill="#D2DBD6"/>
<circle cx="886" cy="240" r="2" fill="#D2DBD6"/>
<circle cx="920" cy="240" r="2" fill="#D2DBD6"/>
<circle cx="954" cy="240" r="2" fill="#D2DBD6"/>
<circle cx="988" cy="240" r="2" fill="#D2DBD6"/>
<circle cx="1022" cy="240" r="2" fill="#D2DBD6"/>
<circle cx="1056" cy="240" r="2" fill="#D2DBD6"/>
<circle cx="1090" cy="240" r="2" fill="#D2DBD6"/>
<circle cx="1124" cy="240" r="2" fill="#D2DBD6"/>
<circle cx="1158" cy="240" r="2" fill="#D2DBD6"/>
<circle cx="1192" cy="240" r="2" fill="#D2DBD6"/>
<circle cx="1226" cy="240" r="2" fill="#D2DBD6"/>
<circle cx="1260" cy="240" r="2" fill="#D2DBD6"/>
<circle cx="1294" cy="240" r="2" fill="#D2DBD6"/>
<circle cx="1328" cy="240" r="2" fill="#D2DBD6"/>
<circle cx="1362" cy="240" r="2" fill="#D2DBD6"/>
<circle cx="1396" cy="240" r="2" fill="#D2DBD6"/>
<circle cx="1430" cy="240" r="2" fill="#D2DBD6"/>
<circle cx="1464" cy="240" r="2" fill="#D2DBD6"/>
<circle cx="1498" cy="240" r="2" fill="#D2DBD6"/>
<circle cx="2" cy="274" r="2" fill="#D2DBD6"/>
<circle cx="36" cy="274" r="2" fill="#D2DBD6"/>
<circle cx="70" cy="274" r="2" fill="#D2DBD6"/>
<circle cx="104" cy="274" r="2" fill="#D2DBD6"/>
<circle cx="138" cy="274" r="2" fill="#D2DBD6"/>
<circle cx="172" cy="274" r="2" fill="#D2DBD6"/>
<circle cx="206" cy="274" r="2" fill="#D2DBD6"/>
<circle cx="240" cy="274" r="2" fill="#D2DBD6"/>
<circle cx="274" cy="274" r="2" fill="#D2DBD6"/>
<circle cx="308" cy="274" r="2" fill="#D2DBD6"/>
<circle cx="342" cy="274" r="2" fill="#D2DBD6"/>
<circle cx="376" cy="274" r="2" fill="#D2DBD6"/>
<circle cx="410" cy="274" r="2" fill="#D2DBD6"/>
<circle cx="444" cy="274" r="2" fill="#D2DBD6"/>
<circle cx="478" cy="274" r="2" fill="#D2DBD6"/>
<circle cx="512" cy="274" r="2" fill="#D2DBD6"/>
<circle cx="546" cy="274" r="2" fill="#D2DBD6"/>
<circle cx="580" cy="274" r="2" fill="#D2DBD6"/>
<circle cx="614" cy="274" r="2" fill="#D2DBD6"/>
<circle cx="648" cy="274" r="2" fill="#D2DBD6"/>
<circle cx="682" cy="274" r="2" fill="#D2DBD6"/>
<circle cx="716" cy="274" r="2" fill="#D2DBD6"/>
<circle cx="750" cy="274" r="2" fill="#D2DBD6"/>
<circle cx="784" cy="274" r="2" fill="#D2DBD6"/>
<circle cx="818" cy="274" r="2" fill="#D2DBD6"/>
<circle cx="852" cy="274" r="2" fill="#D2DBD6"/>
<circle cx="886" cy="274" r="2" fill="#D2DBD6"/>
<circle cx="920" cy="274" r="2" fill="#D2DBD6"/>
<circle cx="954" cy="274" r="2" fill="#D2DBD6"/>
<circle cx="988" cy="274" r="2" fill="#D2DBD6"/>
<circle cx="1022" cy="274" r="2" fill="#D2DBD6"/>
<circle cx="1056" cy="274" r="2" fill="#D2DBD6"/>
<circle cx="1090" cy="274" r="2" fill="#D2DBD6"/>
<circle cx="1124" cy="274" r="2" fill="#D2DBD6"/>
<circle cx="1158" cy="274" r="2" fill="#D2DBD6"/>
<circle cx="1192" cy="274" r="2" fill="#D2DBD6"/>
<circle cx="1226" cy="274" r="2" fill="#D2DBD6"/>
<circle cx="1260" cy="274" r="2" fill="#D2DBD6"/>
<circle cx="1294" cy="274" r="2" fill="#D2DBD6"/>
<circle cx="1328" cy="274" r="2" fill="#D2DBD6"/>
<circle cx="1362" cy="274" r="2" fill="#D2DBD6"/>
<circle cx="1396" cy="274" r="2" fill="#D2DBD6"/>
<circle cx="1430" cy="274" r="2" fill="#D2DBD6"/>
<circle cx="1464" cy="274" r="2" fill="#D2DBD6"/>
<circle cx="1498" cy="274" r="2" fill="#D2DBD6"/>
<circle cx="2" cy="308" r="2" fill="#D2DBD6"/>
<circle cx="36" cy="308" r="2" fill="#D2DBD6"/>
<circle cx="70" cy="308" r="2" fill="#D2DBD6"/>
<circle cx="104" cy="308" r="2" fill="#D2DBD6"/>
<circle cx="138" cy="308" r="2" fill="#D2DBD6"/>
<circle cx="172" cy="308" r="2" fill="#D2DBD6"/>
<circle cx="206" cy="308" r="2" fill="#D2DBD6"/>
<circle cx="240" cy="308" r="2" fill="#D2DBD6"/>
<circle cx="274" cy="308" r="2" fill="#D2DBD6"/>
<circle cx="308" cy="308" r="2" fill="#D2DBD6"/>
<circle cx="342" cy="308" r="2" fill="#D2DBD6"/>
<circle cx="376" cy="308" r="2" fill="#D2DBD6"/>
<circle cx="410" cy="308" r="2" fill="#D2DBD6"/>
<circle cx="444" cy="308" r="2" fill="#D2DBD6"/>
<circle cx="478" cy="308" r="2" fill="#D2DBD6"/>
<circle cx="512" cy="308" r="2" fill="#D2DBD6"/>
<circle cx="546" cy="308" r="2" fill="#D2DBD6"/>
<circle cx="580" cy="308" r="2" fill="#D2DBD6"/>
<circle cx="614" cy="308" r="2" fill="#D2DBD6"/>
<circle cx="648" cy="308" r="2" fill="#D2DBD6"/>
<circle cx="682" cy="308" r="2" fill="#D2DBD6"/>
<circle cx="716" cy="308" r="2" fill="#D2DBD6"/>
<circle cx="750" cy="308" r="2" fill="#D2DBD6"/>
<circle cx="784" cy="308" r="2" fill="#D2DBD6"/>
<circle cx="818" cy="308" r="2" fill="#D2DBD6"/>
<circle cx="852" cy="308" r="2" fill="#D2DBD6"/>
<circle cx="886" cy="308" r="2" fill="#D2DBD6"/>
<circle cx="920" cy="308" r="2" fill="#D2DBD6"/>
<circle cx="954" cy="308" r="2" fill="#D2DBD6"/>
<circle cx="988" cy="308" r="2" fill="#D2DBD6"/>
<circle cx="1022" cy="308" r="2" fill="#D2DBD6"/>
<circle cx="1056" cy="308" r="2" fill="#D2DBD6"/>
<circle cx="1090" cy="308" r="2" fill="#D2DBD6"/>
<circle cx="1124" cy="308" r="2" fill="#D2DBD6"/>
<circle cx="1158" cy="308" r="2" fill="#D2DBD6"/>
<circle cx="1192" cy="308" r="2" fill="#D2DBD6"/>
<circle cx="1226" cy="308" r="2" fill="#D2DBD6"/>
<circle cx="1260" cy="308" r="2" fill="#D2DBD6"/>
<circle cx="1294" cy="308" r="2" fill="#D2DBD6"/>
<circle cx="1328" cy="308" r="2" fill="#D2DBD6"/>
<circle cx="1362" cy="308" r="2" fill="#D2DBD6"/>
<circle cx="1396" cy="308" r="2" fill="#D2DBD6"/>
<circle cx="1430" cy="308" r="2" fill="#D2DBD6"/>
<circle cx="1464" cy="308" r="2" fill="#D2DBD6"/>
<circle cx="1498" cy="308" r="2" fill="#D2DBD6"/>
<circle cx="2" cy="342" r="2" fill="#D2DBD6"/>
<circle cx="36" cy="342" r="2" fill="#D2DBD6"/>
<circle cx="70" cy="342" r="2" fill="#D2DBD6"/>
<circle cx="104" cy="342" r="2" fill="#D2DBD6"/>
<circle cx="138" cy="342" r="2" fill="#D2DBD6"/>
<circle cx="172" cy="342" r="2" fill="#D2DBD6"/>
<circle cx="206" cy="342" r="2" fill="#D2DBD6"/>
<circle cx="240" cy="342" r="2" fill="#D2DBD6"/>
<circle cx="274" cy="342" r="2" fill="#D2DBD6"/>
<circle cx="308" cy="342" r="2" fill="#D2DBD6"/>
<circle cx="342" cy="342" r="2" fill="#D2DBD6"/>
<circle cx="376" cy="342" r="2" fill="#D2DBD6"/>
<circle cx="410" cy="342" r="2" fill="#D2DBD6"/>
<circle cx="444" cy="342" r="2" fill="#D2DBD6"/>
<circle cx="478" cy="342" r="2" fill="#D2DBD6"/>
<circle cx="512" cy="342" r="2" fill="#D2DBD6"/>
<circle cx="546" cy="342" r="2" fill="#D2DBD6"/>
<circle cx="580" cy="342" r="2" fill="#D2DBD6"/>
<circle cx="614" cy="342" r="2" fill="#D2DBD6"/>
<circle cx="648" cy="342" r="2" fill="#D2DBD6"/>
<circle cx="682" cy="342" r="2" fill="#D2DBD6"/>
<circle cx="716" cy="342" r="2" fill="#D2DBD6"/>
<circle cx="750" cy="342" r="2" fill="#D2DBD6"/>
<circle cx="784" cy="342" r="2" fill="#D2DBD6"/>
<circle cx="818" cy="342" r="2" fill="#D2DBD6"/>
<circle cx="852" cy="342" r="2" fill="#D2DBD6"/>
<circle cx="886" cy="342" r="2" fill="#D2DBD6"/>
<circle cx="920" cy="342" r="2" fill="#D2DBD6"/>
<circle cx="954" cy="342" r="2" fill="#D2DBD6"/>
<circle cx="988" cy="342" r="2" fill="#D2DBD6"/>
<circle cx="1022" cy="342" r="2" fill="#D2DBD6"/>
<circle cx="1056" cy="342" r="2" fill="#D2DBD6"/>
<circle cx="1090" cy="342" r="2" fill="#D2DBD6"/>
<circle cx="1124" cy="342" r="2" fill="#D2DBD6"/>
<circle cx="1158" cy="342" r="2" fill="#D2DBD6"/>
<circle cx="1192" cy="342" r="2" fill="#D2DBD6"/>
<circle cx="1226" cy="342" r="2" fill="#D2DBD6"/>
<circle cx="1260" cy="342" r="2" fill="#D2DBD6"/>
<circle cx="1294" cy="342" r="2" fill="#D2DBD6"/>
<circle cx="1328" cy="342" r="2" fill="#D2DBD6"/>
<circle cx="1362" cy="342" r="2" fill="#D2DBD6"/>
<circle cx="1396" cy="342" r="2" fill="#D2DBD6"/>
<circle cx="1430" cy="342" r="2" fill="#D2DBD6"/>
<circle cx="1464" cy="342" r="2" fill="#D2DBD6"/>
<circle cx="1498" cy="342" r="2" fill="#D2DBD6"/>
<circle cx="2" cy="376" r="2" fill="#D2DBD6"/>
<circle cx="36" cy="376" r="2" fill="#D2DBD6"/>
<circle cx="70" cy="376" r="2" fill="#D2DBD6"/>
<circle cx="104" cy="376" r="2" fill="#D2DBD6"/>
<circle cx="138" cy="376" r="2" fill="#D2DBD6"/>
<circle cx="172" cy="376" r="2" fill="#D2DBD6"/>
<circle cx="206" cy="376" r="2" fill="#D2DBD6"/>
<circle cx="240" cy="376" r="2" fill="#D2DBD6"/>
<circle cx="274" cy="376" r="2" fill="#D2DBD6"/>
<circle cx="308" cy="376" r="2" fill="#D2DBD6"/>
<circle cx="342" cy="376" r="2" fill="#D2DBD6"/>
<circle cx="376" cy="376" r="2" fill="#D2DBD6"/>
<circle cx="410" cy="376" r="2" fill="#D2DBD6"/>
<circle cx="444" cy="376" r="2" fill="#D2DBD6"/>
<circle cx="478" cy="376" r="2" fill="#D2DBD6"/>
<circle cx="512" cy="376" r="2" fill="#D2DBD6"/>
<circle cx="546" cy="376" r="2" fill="#D2DBD6"/>
<circle cx="580" cy="376" r="2" fill="#D2DBD6"/>
<circle cx="614" cy="376" r="2" fill="#D2DBD6"/>
<circle cx="648" cy="376" r="2" fill="#D2DBD6"/>
<circle cx="682" cy="376" r="2" fill="#D2DBD6"/>
<circle cx="716" cy="376" r="2" fill="#D2DBD6"/>
<circle cx="750" cy="376" r="2" fill="#D2DBD6"/>
<circle cx="784" cy="376" r="2" fill="#D2DBD6"/>
<circle cx="818" cy="376" r="2" fill="#D2DBD6"/>
<circle cx="852" cy="376" r="2" fill="#D2DBD6"/>
<circle cx="886" cy="376" r="2" fill="#D2DBD6"/>
<circle cx="920" cy="376" r="2" fill="#D2DBD6"/>
<circle cx="954" cy="376" r="2" fill="#D2DBD6"/>
<circle cx="988" cy="376" r="2" fill="#D2DBD6"/>
<circle cx="1022" cy="376" r="2" fill="#D2DBD6"/>
<circle cx="1056" cy="376" r="2" fill="#D2DBD6"/>
<circle cx="1090" cy="376" r="2" fill="#D2DBD6"/>
<circle cx="1124" cy="376" r="2" fill="#D2DBD6"/>
<circle cx="1158" cy="376" r="2" fill="#D2DBD6"/>
<circle cx="1192" cy="376" r="2" fill="#D2DBD6"/>
<circle cx="1226" cy="376" r="2" fill="#D2DBD6"/>
<circle cx="1260" cy="376" r="2" fill="#D2DBD6"/>
<circle cx="1294" cy="376" r="2" fill="#D2DBD6"/>
<circle cx="1328" cy="376" r="2" fill="#D2DBD6"/>
<circle cx="1362" cy="376" r="2" fill="#D2DBD6"/>
<circle cx="1396" cy="376" r="2" fill="#D2DBD6"/>
<circle cx="1430" cy="376" r="2" fill="#D2DBD6"/>
<circle cx="1464" cy="376" r="2" fill="#D2DBD6"/>
<circle cx="1498" cy="376" r="2" fill="#D2DBD6"/>
<circle cx="2" cy="410" r="2" fill="#D2DBD6"/>
<circle cx="36" cy="410" r="2" fill="#D2DBD6"/>
<circle cx="70" cy="410" r="2" fill="#D2DBD6"/>
<circle cx="104" cy="410" r="2" fill="#D2DBD6"/>
<circle cx="138" cy="410" r="2" fill="#D2DBD6"/>
<circle cx="172" cy="410" r="2" fill="#D2DBD6"/>
<circle cx="206" cy="410" r="2" fill="#D2DBD6"/>
<circle cx="240" cy="410" r="2" fill="#D2DBD6"/>
<circle cx="274" cy="410" r="2" fill="#D2DBD6"/>
<circle cx="308" cy="410" r="2" fill="#D2DBD6"/>
<circle cx="342" cy="410" r="2" fill="#D2DBD6"/>
<circle cx="376" cy="410" r="2" fill="#D2DBD6"/>
<circle cx="410" cy="410" r="2" fill="#D2DBD6"/>
<circle cx="444" cy="410" r="2" fill="#D2DBD6"/>
<circle cx="478" cy="410" r="2" fill="#D2DBD6"/>
<circle cx="512" cy="410" r="2" fill="#D2DBD6"/>
<circle cx="546" cy="410" r="2" fill="#D2DBD6"/>
<circle cx="580" cy="410" r="2" fill="#D2DBD6"/>
<circle cx="614" cy="410" r="2" fill="#D2DBD6"/>
<circle cx="648" cy="410" r="2" fill="#D2DBD6"/>
<circle cx="682" cy="410" r="2" fill="#D2DBD6"/>
<circle cx="716" cy="410" r="2" fill="#D2DBD6"/>
<circle cx="750" cy="410" r="2" fill="#D2DBD6"/>
<circle cx="784" cy="410" r="2" fill="#D2DBD6"/>
<circle cx="818" cy="410" r="2" fill="#D2DBD6"/>
<circle cx="852" cy="410" r="2" fill="#D2DBD6"/>
<circle cx="886" cy="410" r="2" fill="#D2DBD6"/>
<circle cx="920" cy="410" r="2" fill="#D2DBD6"/>
<circle cx="954" cy="410" r="2" fill="#D2DBD6"/>
<circle cx="988" cy="410" r="2" fill="#D2DBD6"/>
<circle cx="1022" cy="410" r="2" fill="#D2DBD6"/>
<circle cx="1056" cy="410" r="2" fill="#D2DBD6"/>
<circle cx="1090" cy="410" r="2" fill="#D2DBD6"/>
<circle cx="1124" cy="410" r="2" fill="#D2DBD6"/>
<circle cx="1158" cy="410" r="2" fill="#D2DBD6"/>
<circle cx="1192" cy="410" r="2" fill="#D2DBD6"/>
<circle cx="1226" cy="410" r="2" fill="#D2DBD6"/>
<circle cx="1260" cy="410" r="2" fill="#D2DBD6"/>
<circle cx="1294" cy="410" r="2" fill="#D2DBD6"/>
<circle cx="1328" cy="410" r="2" fill="#D2DBD6"/>
<circle cx="1362" cy="410" r="2" fill="#D2DBD6"/>
<circle cx="1396" cy="410" r="2" fill="#D2DBD6"/>
<circle cx="1430" cy="410" r="2" fill="#D2DBD6"/>
<circle cx="1464" cy="410" r="2" fill="#D2DBD6"/>
<circle cx="1498" cy="410" r="2" fill="#D2DBD6"/>
<circle cx="2" cy="444" r="2" fill="#D2DBD6"/>
<circle cx="36" cy="444" r="2" fill="#D2DBD6"/>
<circle cx="70" cy="444" r="2" fill="#D2DBD6"/>
<circle cx="104" cy="444" r="2" fill="#D2DBD6"/>
<circle cx="138" cy="444" r="2" fill="#D2DBD6"/>
<circle cx="172" cy="444" r="2" fill="#D2DBD6"/>
<circle cx="206" cy="444" r="2" fill="#D2DBD6"/>
<circle cx="240" cy="444" r="2" fill="#D2DBD6"/>
<circle cx="274" cy="444" r="2" fill="#D2DBD6"/>
<circle cx="308" cy="444" r="2" fill="#D2DBD6"/>
<circle cx="342" cy="444" r="2" fill="#D2DBD6"/>
<circle cx="376" cy="444" r="2" fill="#D2DBD6"/>
<circle cx="410" cy="444" r="2" fill="#D2DBD6"/>
<circle cx="444" cy="444" r="2" fill="#D2DBD6"/>
<circle cx="478" cy="444" r="2" fill="#D2DBD6"/>
<circle cx="512" cy="444" r="2" fill="#D2DBD6"/>
<circle cx="546" cy="444" r="2" fill="#D2DBD6"/>
<circle cx="580" cy="444" r="2" fill="#D2DBD6"/>
<circle cx="614" cy="444" r="2" fill="#D2DBD6"/>
<circle cx="648" cy="444" r="2" fill="#D2DBD6"/>
<circle cx="682" cy="444" r="2" fill="#D2DBD6"/>
<circle cx="716" cy="444" r="2" fill="#D2DBD6"/>
<circle cx="750" cy="444" r="2" fill="#D2DBD6"/>
<circle cx="784" cy="444" r="2" fill="#D2DBD6"/>
<circle cx="818" cy="444" r="2" fill="#D2DBD6"/>
<circle cx="852" cy="444" r="2" fill="#D2DBD6"/>
<circle cx="886" cy="444" r="2" fill="#D2DBD6"/>
<circle cx="920" cy="444" r="2" fill="#D2DBD6"/>
<circle cx="954" cy="444" r="2" fill="#D2DBD6"/>
<circle cx="988" cy="444" r="2" fill="#D2DBD6"/>
<circle cx="1022" cy="444" r="2" fill="#D2DBD6"/>
<circle cx="1056" cy="444" r="2" fill="#D2DBD6"/>
<circle cx="1090" cy="444" r="2" fill="#D2DBD6"/>
<circle cx="1124" cy="444" r="2" fill="#D2DBD6"/>
<circle cx="1158" cy="444" r="2" fill="#D2DBD6"/>
<circle cx="1192" cy="444" r="2" fill="#D2DBD6"/>
<circle cx="1226" cy="444" r="2" fill="#D2DBD6"/>
<circle cx="1260" cy="444" r="2" fill="#D2DBD6"/>
<circle cx="1294" cy="444" r="2" fill="#D2DBD6"/>
<circle cx="1328" cy="444" r="2" fill="#D2DBD6"/>
<circle cx="1362" cy="444" r="2" fill="#D2DBD6"/>
<circle cx="1396" cy="444" r="2" fill="#D2DBD6"/>
<circle cx="1430" cy="444" r="2" fill="#D2DBD6"/>
<circle cx="1464" cy="444" r="2" fill="#D2DBD6"/>
<circle cx="1498" cy="444" r="2" fill="#D2DBD6"/>
<circle cx="2" cy="478" r="2" fill="#D2DBD6"/>
<circle cx="36" cy="478" r="2" fill="#D2DBD6"/>
<circle cx="70" cy="478" r="2" fill="#D2DBD6"/>
<circle cx="104" cy="478" r="2" fill="#D2DBD6"/>
<circle cx="138" cy="478" r="2" fill="#D2DBD6"/>
<circle cx="172" cy="478" r="2" fill="#D2DBD6"/>
<circle cx="206" cy="478" r="2" fill="#D2DBD6"/>
<circle cx="240" cy="478" r="2" fill="#D2DBD6"/>
<circle cx="274" cy="478" r="2" fill="#D2DBD6"/>
<circle cx="308" cy="478" r="2" fill="#D2DBD6"/>
<circle cx="342" cy="478" r="2" fill="#D2DBD6"/>
<circle cx="376" cy="478" r="2" fill="#D2DBD6"/>
<circle cx="410" cy="478" r="2" fill="#D2DBD6"/>
<circle cx="444" cy="478" r="2" fill="#D2DBD6"/>
<circle cx="478" cy="478" r="2" fill="#D2DBD6"/>
<circle cx="512" cy="478" r="2" fill="#D2DBD6"/>
<circle cx="546" cy="478" r="2" fill="#D2DBD6"/>
<circle cx="580" cy="478" r="2" fill="#D2DBD6"/>
<circle cx="614" cy="478" r="2" fill="#D2DBD6"/>
<circle cx="648" cy="478" r="2" fill="#D2DBD6"/>
<circle cx="682" cy="478" r="2" fill="#D2DBD6"/>
<circle cx="716" cy="478" r="2" fill="#D2DBD6"/>
<circle cx="750" cy="478" r="2" fill="#D2DBD6"/>
<circle cx="784" cy="478" r="2" fill="#D2DBD6"/>
<circle cx="818" cy="478" r="2" fill="#D2DBD6"/>
<circle cx="852" cy="478" r="2" fill="#D2DBD6"/>
<circle cx="886" cy="478" r="2" fill="#D2DBD6"/>
<circle cx="920" cy="478" r="2" fill="#D2DBD6"/>
<circle cx="954" cy="478" r="2" fill="#D2DBD6"/>
<circle cx="988" cy="478" r="2" fill="#D2DBD6"/>
<circle cx="1022" cy="478" r="2" fill="#D2DBD6"/>
<circle cx="1056" cy="478" r="2" fill="#D2DBD6"/>
<circle cx="1090" cy="478" r="2" fill="#D2DBD6"/>
<circle cx="1124" cy="478" r="2" fill="#D2DBD6"/>
<circle cx="1158" cy="478" r="2" fill="#D2DBD6"/>
<circle cx="1192" cy="478" r="2" fill="#D2DBD6"/>
<circle cx="1226" cy="478" r="2" fill="#D2DBD6"/>
<circle cx="1260" cy="478" r="2" fill="#D2DBD6"/>
<circle cx="1294" cy="478" r="2" fill="#D2DBD6"/>
<circle cx="1328" cy="478" r="2" fill="#D2DBD6"/>
<circle cx="1362" cy="478" r="2" fill="#D2DBD6"/>
<circle cx="1396" cy="478" r="2" fill="#D2DBD6"/>
<circle cx="1430" cy="478" r="2" fill="#D2DBD6"/>
<circle cx="1464" cy="478" r="2" fill="#D2DBD6"/>
<circle cx="1498" cy="478" r="2" fill="#D2DBD6"/>
<circle cx="2" cy="512" r="2" fill="#D2DBD6"/>
<circle cx="36" cy="512" r="2" fill="#D2DBD6"/>
<circle cx="70" cy="512" r="2" fill="#D2DBD6"/>
<circle cx="104" cy="512" r="2" fill="#D2DBD6"/>
<circle cx="138" cy="512" r="2" fill="#D2DBD6"/>
<circle cx="172" cy="512" r="2" fill="#D2DBD6"/>
<circle cx="206" cy="512" r="2" fill="#D2DBD6"/>
<circle cx="240" cy="512" r="2" fill="#D2DBD6"/>
<circle cx="274" cy="512" r="2" fill="#D2DBD6"/>
<circle cx="308" cy="512" r="2" fill="#D2DBD6"/>
<circle cx="342" cy="512" r="2" fill="#D2DBD6"/>
<circle cx="376" cy="512" r="2" fill="#D2DBD6"/>
<circle cx="410" cy="512" r="2" fill="#D2DBD6"/>
<circle cx="444" cy="512" r="2" fill="#D2DBD6"/>
<circle cx="478" cy="512" r="2" fill="#D2DBD6"/>
<circle cx="512" cy="512" r="2" fill="#D2DBD6"/>
<circle cx="546" cy="512" r="2" fill="#D2DBD6"/>
<circle cx="580" cy="512" r="2" fill="#D2DBD6"/>
<circle cx="614" cy="512" r="2" fill="#D2DBD6"/>
<circle cx="648" cy="512" r="2" fill="#D2DBD6"/>
<circle cx="682" cy="512" r="2" fill="#D2DBD6"/>
<circle cx="716" cy="512" r="2" fill="#D2DBD6"/>
<circle cx="750" cy="512" r="2" fill="#D2DBD6"/>
<circle cx="784" cy="512" r="2" fill="#D2DBD6"/>
<circle cx="818" cy="512" r="2" fill="#D2DBD6"/>
<circle cx="852" cy="512" r="2" fill="#D2DBD6"/>
<circle cx="886" cy="512" r="2" fill="#D2DBD6"/>
<circle cx="920" cy="512" r="2" fill="#D2DBD6"/>
<circle cx="954" cy="512" r="2" fill="#D2DBD6"/>
<circle cx="988" cy="512" r="2" fill="#D2DBD6"/>
<circle cx="1022" cy="512" r="2" fill="#D2DBD6"/>
<circle cx="1056" cy="512" r="2" fill="#D2DBD6"/>
<circle cx="1090" cy="512" r="2" fill="#D2DBD6"/>
<circle cx="1124" cy="512" r="2" fill="#D2DBD6"/>
<circle cx="1158" cy="512" r="2" fill="#D2DBD6"/>
<circle cx="1192" cy="512" r="2" fill="#D2DBD6"/>
<circle cx="1226" cy="512" r="2" fill="#D2DBD6"/>
<circle cx="1260" cy="512" r="2" fill="#D2DBD6"/>
<circle cx="1294" cy="512" r="2" fill="#D2DBD6"/>
<circle cx="1328" cy="512" r="2" fill="#D2DBD6"/>
<circle cx="1362" cy="512" r="2" fill="#D2DBD6"/>
<circle cx="1396" cy="512" r="2" fill="#D2DBD6"/>
<circle cx="1430" cy="512" r="2" fill="#D2DBD6"/>
<circle cx="1464" cy="512" r="2" fill="#D2DBD6"/>
<circle cx="1498" cy="512" r="2" fill="#D2DBD6"/>
</g>
<defs>
<clipPath id="clip0_3_9706">
<rect width="1500" height="530" fill="white"/>
</clipPath>
</defs>
</svg>
